<svg width="780" height="780" viewBox="0 0 780 780" fill="none" xmlns="http://www.w3.org/2000/svg">
<path d="M720 389.5C720 571.478 572.478 719 390.5 719C208.522 719 61 571.478 61 389.5C61 207.522 208.522 60 390.5 60C572.478 60 720 207.522 720 389.5ZM97.245 389.5C97.245 551.46 228.54 682.755 390.5 682.755C552.46 682.755 683.755 551.46 683.755 389.5C683.755 227.54 552.46 96.245 390.5 96.245C228.54 96.245 97.245 227.54 97.245 389.5Z" fill="#ED9682"/>
<path d="M520.169 148.899C576.67 179.29 620.546 228.66 644.009 288.246C667.472 347.833 669.006 413.782 648.337 474.389C627.668 534.996 586.134 586.34 531.106 619.31C476.079 652.279 411.117 664.74 347.751 654.482C284.384 644.223 226.712 611.909 184.97 563.274C143.228 514.639 120.115 452.829 119.735 388.815C119.355 324.8 141.732 262.721 182.893 213.597C224.055 164.472 281.339 131.479 344.579 120.473L352.165 163.818C299.202 173.035 251.226 200.667 216.753 241.809C182.28 282.951 163.54 334.942 163.858 388.554C164.177 442.166 183.533 493.932 218.492 534.664C253.451 575.396 301.752 602.459 354.821 611.05C407.891 619.642 462.296 609.205 508.382 581.594C554.468 553.982 589.252 510.981 606.562 460.223C623.873 409.464 622.588 354.232 602.938 304.328C583.287 254.424 546.542 213.077 499.222 187.625L520.169 148.899Z" fill="#E099CF"/>
<path d="M344.736 120.457C405.25 109.933 467.544 120.236 521.447 149.684L500.362 188.277C455.19 163.598 402.985 154.964 352.272 163.784L344.736 120.457Z" fill="#7C75FF"/>
</svg>
