<svg width="780" height="780" viewBox="0 0 780 780" fill="none" xmlns="http://www.w3.org/2000/svg">
<path d="M720 389.5C720 571.478 572.478 719 390.5 719C208.522 719 61 571.478 61 389.5C61 207.522 208.522 60 390.5 60C572.478 60 720 207.522 720 389.5ZM79.8396 389.5C79.8396 561.073 218.927 700.16 390.5 700.16C562.073 700.16 701.16 561.073 701.16 389.5C701.16 217.927 562.073 78.8396 390.5 78.8396C218.927 78.8396 79.8396 217.927 79.8396 389.5Z" fill="#ED9682"/>
<path d="M528.886 132.883C589.541 165.544 636.643 218.602 661.832 282.641C687.021 346.68 688.667 417.556 666.478 482.691C644.29 547.827 599.701 603.007 540.627 638.44C481.553 673.872 411.814 687.264 343.788 676.239C275.762 665.215 213.849 630.486 169.037 578.217C124.225 525.949 99.4132 459.521 99.0051 390.723C98.597 321.926 122.619 255.209 166.808 202.414C210.996 149.619 272.493 114.161 340.384 102.333L352.913 174C301.995 182.871 255.872 209.465 222.731 249.061C189.589 288.657 171.573 338.694 171.879 390.292C172.185 441.89 190.794 491.711 224.403 530.913C258.012 570.115 304.446 596.161 355.466 604.43C406.486 612.698 458.79 602.654 503.095 576.08C547.401 549.505 580.842 508.12 597.484 459.269C614.125 410.417 612.891 357.26 593.999 309.231C575.108 261.202 539.781 221.408 494.289 196.912L528.886 132.883Z" fill="#E099CF"/>
<path d="M343.901 122.429C403.904 112.031 465.661 122.105 519.249 151.034L498.359 189.732C453.45 165.489 401.695 157.046 351.41 165.76L343.901 122.429Z" fill="#7C75FF"/>
</svg>
