<svg width="659" height="659" viewBox="0 0 659 659" fill="none" xmlns="http://www.w3.org/2000/svg">
<path d="M659 329.5C659 511.478 511.478 659 329.5 659C147.522 659 0 511.478 0 329.5C0 147.522 147.522 0 329.5 0C511.478 0 659 147.522 659 329.5ZM18.8396 329.5C18.8396 501.073 157.927 640.16 329.5 640.16C501.073 640.16 640.16 501.073 640.16 329.5C640.16 157.927 501.073 18.8396 329.5 18.8396C157.927 18.8396 18.8396 157.927 18.8396 329.5Z" fill="#ED9682"/>
<path d="M467.886 72.8828C528.541 105.544 575.643 158.602 600.832 222.641C626.021 286.68 627.667 357.556 605.478 422.691C583.29 487.827 538.701 543.007 479.627 578.44C420.553 613.872 350.814 627.264 282.788 616.239C214.762 605.215 152.849 570.486 108.037 518.217C63.225 465.949 38.4132 399.521 38.0051 330.723C37.597 261.926 61.619 195.209 105.808 142.414C149.996 89.6195 211.493 54.1612 279.384 42.333L291.913 114C240.995 122.871 194.872 149.465 161.731 189.061C128.589 228.657 110.573 278.694 110.879 330.292C111.185 381.89 129.794 431.711 163.403 470.913C197.012 510.115 243.446 536.161 294.466 544.43C345.486 552.698 397.79 542.654 442.095 516.08C486.401 489.505 519.842 448.12 536.484 399.269C553.125 350.417 551.891 297.26 532.999 249.231C514.108 201.202 478.781 161.408 433.289 136.912L467.886 72.8828Z" fill="#E099CF"/>
<path d="M282.901 62.4286C342.904 52.0309 404.661 62.1055 458.249 91.0337L437.359 129.732C392.45 105.489 340.695 97.0462 290.41 105.76L282.901 62.4286Z" fill="#7C75FF"/>
</svg>
