<svg width="659" height="659" viewBox="0 0 659 659" fill="none" xmlns="http://www.w3.org/2000/svg">
<path d="M659 329.5C659 511.478 511.478 659 329.5 659C147.522 659 0 511.478 0 329.5C0 147.522 147.522 0 329.5 0C511.478 0 659 147.522 659 329.5ZM18.8396 329.5C18.8396 501.073 157.927 640.16 329.5 640.16C501.073 640.16 640.16 501.073 640.16 329.5C640.16 157.927 501.073 18.8396 329.5 18.8396C157.927 18.8396 18.8396 157.927 18.8396 329.5Z" fill="#ED9682"/>
<path d="M459.169 88.8992C515.67 119.29 559.546 168.66 583.009 228.246C606.472 287.833 608.005 353.782 587.337 414.389C566.668 474.996 525.134 526.34 470.106 559.31C415.079 592.279 350.117 604.74 286.751 594.482C223.384 584.223 165.712 551.909 123.97 503.274C82.2276 454.639 59.1154 392.829 58.7352 328.815C58.3551 264.8 80.7316 202.721 121.893 153.597C163.055 104.472 220.339 71.4791 283.579 60.4732L291.165 103.818C238.202 113.035 190.226 140.667 155.753 181.809C121.28 222.951 102.54 274.942 102.858 328.554C103.177 382.166 122.533 433.932 157.492 474.664C192.451 515.396 240.752 542.459 293.821 551.05C346.891 559.642 401.296 549.205 447.382 521.594C493.468 493.982 528.252 450.981 545.562 400.223C562.873 349.464 561.588 294.232 541.938 244.328C522.287 194.424 485.542 153.077 438.222 127.625L459.169 88.8992Z" fill="#E099CF"/>
<path d="M280.365 42.3817C344.488 31.0872 410.541 41.7746 467.853 72.7181L433.515 136.539C390.53 113.331 340.991 105.315 292.899 113.786L280.365 42.3817Z" fill="#7C75FF"/>
</svg>
