<svg width="780" height="780" viewBox="0 0 780 780" fill="none" xmlns="http://www.w3.org/2000/svg">
<g clip-path="url(#clip0_767_2504)">
<g opacity="0.4" filter="url(#filter0_f_767_2504)">
<circle cx="389.259" cy="386.259" r="195.259" fill="#222222"/>
</g>
<g opacity="0.25" filter="url(#filter1_f_767_2504)">
<path d="M165.593 232.972C203.732 177.353 261.203 137.917 326.819 122.341C392.435 106.766 461.499 116.165 520.567 148.709L389.532 386.532L165.593 232.972Z" fill="#6490F5"/>
<path d="M518.439 147.549C556.244 167.941 588.673 197.012 613.06 232.372L389.532 386.532L518.439 147.549Z" fill="#2864FF"/>
<path d="M611.451 230.065C638.214 268.023 654.794 312.213 659.604 358.408C664.415 404.603 657.296 451.26 638.928 493.919L389.532 386.532L611.451 230.065Z" fill="#882DCF"/>
<path d="M638.756 494.318C619.07 539.835 587.295 579.092 546.878 607.829C506.46 636.567 458.945 653.686 409.487 657.331C360.029 660.975 310.517 651.005 266.324 628.503C222.131 606 184.945 571.825 158.8 529.684L389.532 386.532L638.756 494.318Z" fill="#EE4492"/>
<path d="M158.953 529.93C131.059 485.078 116.852 433.065 118.072 380.26C119.292 327.456 135.887 276.154 165.822 232.638L389.532 386.532L158.953 529.93Z" fill="#7C75FF"/>
</g>
<path d="M720 389.5C720 571.478 572.478 719 390.5 719C208.522 719 61 571.478 61 389.5C61 207.522 208.522 60 390.5 60C572.478 60 720 207.522 720 389.5ZM79.8396 389.5C79.8396 561.073 218.927 700.16 390.5 700.16C562.073 700.16 701.16 561.073 701.16 389.5C701.16 217.927 562.073 78.8396 390.5 78.8396C218.927 78.8396 79.8396 217.927 79.8396 389.5Z" fill="#ED9682"/>
<path d="M520.169 148.899C576.67 179.29 620.546 228.66 644.009 288.246C667.472 347.833 669.006 413.782 648.337 474.389C627.668 534.996 586.134 586.34 531.106 619.31C476.079 652.279 411.117 664.74 347.751 654.482C284.384 644.223 226.712 611.909 184.97 563.274C143.228 514.639 120.115 452.829 119.735 388.815C119.355 324.8 141.732 262.721 182.893 213.597C224.055 164.472 281.339 131.479 344.579 120.473L352.165 163.818C299.202 173.035 251.226 200.667 216.753 241.809C182.28 282.951 163.54 334.942 163.858 388.554C164.177 442.166 183.533 493.932 218.492 534.664C253.451 575.396 301.752 602.459 354.821 611.05C407.891 619.642 462.296 609.205 508.382 581.594C554.468 553.982 589.252 510.981 606.562 460.223C623.873 409.464 622.588 354.232 602.938 304.328C583.287 254.424 546.542 213.077 499.222 187.625L520.169 148.899Z" fill="#E099CF"/>
<path d="M344.736 120.457C405.25 109.933 467.544 120.236 521.447 149.684L500.362 188.277C455.19 163.598 402.985 154.964 352.272 163.784L344.736 120.457Z" fill="#7C75FF"/>
</g>
<defs>
<filter id="filter0_f_767_2504" x="162.728" y="159.728" width="453.063" height="453.063" filterUnits="userSpaceOnUse" color-interpolation-filters="sRGB">
<feFlood flood-opacity="0" result="BackgroundImageFix"/>
<feBlend mode="normal" in="SourceGraphic" in2="BackgroundImageFix" result="shape"/>
<feGaussianBlur stdDeviation="15.636" result="effect1_foregroundBlur_767_2504"/>
</filter>
<filter id="filter1_f_767_2504" x="-16.2408" y="-19.2417" width="811.546" height="811.547" filterUnits="userSpaceOnUse" color-interpolation-filters="sRGB">
<feFlood flood-opacity="0" result="BackgroundImageFix"/>
<feBlend mode="normal" in="SourceGraphic" in2="BackgroundImageFix" result="shape"/>
<feGaussianBlur stdDeviation="67.1204" result="effect1_foregroundBlur_767_2504"/>
</filter>
<clipPath id="clip0_767_2504">
<rect width="780" height="780" fill="white"/>
</clipPath>
</defs>
</svg>
