<svg width="809" height="185" viewBox="0 0 809 185" fill="none" xmlns="http://www.w3.org/2000/svg">
<path d="M0.993191 181H-0.00680923V182H0.993191V181ZM0.993191 4.00327V3.00327H-0.00680923V4.00327H0.993191ZM42.2081 4.00327L42.9783 3.36536L42.6783 3.00327H42.2081V4.00327ZM139.809 121.833V122.833H141.936L140.579 121.195L139.809 121.833ZM120.34 121.833H119.34V122.833H120.34V121.833ZM120.34 4.00327V3.00327H119.34V4.00327H120.34ZM169.393 4.00327H170.393V3.00327H169.393V4.00327ZM169.393 181V182H170.393V181H169.393ZM128.178 181L127.408 181.638L127.708 182H128.178V181ZM30.5769 63.1707V62.1707H28.4501L29.8068 63.8087L30.5769 63.1707ZM50.0466 63.1707H51.0466V62.1707H50.0466V63.1707ZM50.0466 181V182H51.0466V181H50.0466ZM1.99319 181V4.00327H-0.00680923V181H1.99319ZM0.993191 5.00327H42.2081V3.00327H0.993191V5.00327ZM41.438 4.64117L139.039 122.47L140.579 121.195L42.9783 3.36536L41.438 4.64117ZM139.809 120.833H120.34V122.833H139.809V120.833ZM121.34 121.833V4.00327H119.34V121.833H121.34ZM120.34 5.00327H169.393V3.00327H120.34V5.00327ZM168.393 4.00327V181H170.393V4.00327H168.393ZM169.393 180H128.178V182H169.393V180ZM128.948 180.362L31.347 62.5328L29.8068 63.8087L127.408 181.638L128.948 180.362ZM30.5769 64.1707H50.0466V62.1707H30.5769V64.1707ZM49.0466 63.1707V181H51.0466V63.1707H49.0466ZM50.0466 180H0.993191V182H50.0466V180ZM250.726 72.5263V71.5263H249.726V72.5263H250.726ZM332.904 72.5263H333.904V71.5263H332.904V72.5263ZM332.904 109.948V110.948H333.904V109.948H332.904ZM250.726 109.948H249.726V110.948H250.726V109.948ZM254.266 142.314H253.266V143.314H254.266V142.314ZM346.81 142.314H347.81V141.314H346.81V142.314ZM346.81 181V182H347.81V181H346.81ZM204.707 181H203.707V182H204.707V181ZM204.707 4.00327V3.00327H203.707V4.00327H204.707ZM343.523 4.00327H344.523V3.00327H343.523V4.00327ZM343.523 42.6897V43.6897H344.523V42.6897H343.523ZM254.266 42.6897V41.6897H253.266V42.6897H254.266ZM250.726 73.5263H332.904V71.5263H250.726V73.5263ZM331.904 72.5263V109.948H333.904V72.5263H331.904ZM332.904 108.948H250.726V110.948H332.904V108.948ZM251.726 109.948V72.5263H249.726V109.948H251.726ZM254.266 143.314H346.81V141.314H254.266V143.314ZM345.81 142.314V181H347.81V142.314H345.81ZM346.81 180H204.707V182H346.81V180ZM205.707 181V4.00327H203.707V181H205.707ZM204.707 5.00327H343.523V3.00327H204.707V5.00327ZM342.523 4.00327V42.6897H344.523V4.00327H342.523ZM343.523 41.6897H254.266V43.6897H343.523V41.6897ZM253.266 42.6897V142.314H255.266V42.6897H253.266ZM415.867 181L414.916 181.308L415.14 182H415.867V181ZM358.469 4.00327V3.00327H357.094L357.518 4.31174L358.469 4.00327ZM410.051 4.00327L411.005 3.70266L410.785 3.00327H410.051V4.00327ZM458.346 157.232V158.232H459.71L459.3 156.931L458.346 157.232ZM432.302 157.232L431.353 156.917L430.917 158.232H432.302V157.232ZM483.126 4.00327V3.00327H482.404L482.176 3.68845L483.126 4.00327ZM529.145 4.00327L530.099 3.70409L529.879 3.00327H529.145V4.00327ZM577.187 157.232V158.232H578.548L578.141 156.933L577.187 157.232ZM552.154 157.232L551.203 156.923L550.778 158.232H552.154V157.232ZM601.966 4.00327V3.00327H601.24L601.015 3.69411L601.966 4.00327ZM649.755 4.00327L650.707 4.31174L651.131 3.00327H649.755V4.00327ZM592.358 181V182H593.085L593.309 181.308L592.358 181ZM538.753 181L537.799 181.3L538.019 182H538.753V181ZM497.791 50.781V49.781H496.428L496.837 51.081L497.791 50.781ZM512.204 50.781L513.154 51.0928L513.584 49.781H512.204V50.781ZM469.472 181V182H470.196L470.422 181.312L469.472 181ZM416.818 180.692L359.421 3.69479L357.518 4.31174L414.916 181.308L416.818 180.692ZM358.469 5.00327H410.051V3.00327H358.469V5.00327ZM409.097 4.30387L457.392 157.532L459.3 156.931L411.005 3.70266L409.097 4.30387ZM458.346 156.232H432.302V158.232H458.346V156.232ZM433.251 157.547L484.075 4.31808L482.176 3.68845L431.353 156.917L433.251 157.547ZM483.126 5.00327H529.145V3.00327H483.126V5.00327ZM528.19 4.30244L576.232 157.531L578.141 156.933L530.099 3.70409L528.19 4.30244ZM577.187 156.232H552.154V158.232H577.187V156.232ZM553.105 157.541L602.917 4.31242L601.015 3.69411L551.203 156.923L553.105 157.541ZM601.966 5.00327H649.755V3.00327H601.966V5.00327ZM648.804 3.69479L591.407 180.692L593.309 181.308L650.707 4.31174L648.804 3.69479ZM592.358 180H538.753V182H592.358V180ZM539.707 180.7L498.745 50.4809L496.837 51.081L537.799 181.3L539.707 180.7ZM497.791 51.781H512.204V49.781H497.791V51.781ZM511.253 50.4692L468.521 180.688L470.422 181.312L513.154 51.0928L511.253 50.4692ZM469.472 180H415.867V182H469.472V180ZM687.922 179.23L687.654 180.193L687.661 180.195L687.668 180.197L687.922 179.23ZM655.304 165.07L654.391 164.664L654.051 165.427L654.742 165.897L655.304 165.07ZM671.74 128.154L672.278 127.311L671.299 126.686L670.826 127.747L671.74 128.154ZM699.048 140.796L698.736 141.747L698.745 141.75L698.755 141.753L699.048 140.796ZM746.837 143.831L747.106 144.794L747.124 144.789L747.142 144.783L746.837 143.831ZM755.94 138.774L755.205 138.095L755.202 138.098L755.94 138.774ZM753.411 121.58L752.874 122.423L753.411 121.58ZM738.998 115.764L739.247 114.796L738.998 115.764ZM719.276 111.213L719.066 112.191L719.071 112.191L719.276 111.213ZM697.783 105.397L697.467 106.346L697.474 106.348L697.783 105.397ZM678.314 96.2944L677.765 97.1301L677.773 97.1357L677.782 97.1411L678.314 96.2944ZM663.901 81.3761L663.042 81.8872L663.048 81.8976L663.901 81.3761ZM666.935 29.0357L666.111 28.4698L666.103 28.481L666.935 29.0357ZM693.232 8.30176L692.822 7.3896L693.232 8.30176ZM770.858 4.50898L770.622 5.48083L770.631 5.4829L770.639 5.48482L770.858 4.50898ZM800.947 15.8873L801.871 16.2706L802.207 15.4598L801.447 15.0211L800.947 15.8873ZM785.523 53.0566L785.048 53.9365L786.022 54.4627L786.447 53.4399L785.523 53.0566ZM760.491 42.9426L760.216 43.9041L760.225 43.9067L760.234 43.9091L760.491 42.9426ZM719.782 41.6783L720.086 42.6307L720.103 42.6253L720.12 42.6192L719.782 41.6783ZM710.679 47.241L709.893 46.6232L710.679 47.241ZM713.207 64.6879L712.653 65.5199L712.675 65.535L712.699 65.5488L713.207 64.6879ZM727.62 70.2506L727.371 71.2191L727.387 71.2232L727.403 71.2268L727.62 70.2506ZM747.343 74.5491L747.133 75.5269L747.138 75.5279L747.343 74.5491ZM768.835 80.3647L768.519 81.3134L768.532 81.3178L768.546 81.3219L768.835 80.3647ZM788.557 89.4674L788.008 90.3031L788.017 90.3087L788.025 90.314L788.557 89.4674ZM802.717 104.386L801.848 104.879L801.856 104.893L801.864 104.907L802.717 104.386ZM799.43 155.968L798.601 155.409L798.598 155.413L799.43 155.968ZM773.386 176.702L772.977 175.789L772.971 175.792L773.386 176.702ZM729.896 183.54C715.481 183.54 701.575 181.78 688.176 178.263L687.668 180.197C701.24 183.76 715.317 185.54 729.896 185.54V183.54ZM688.19 178.267C674.944 174.578 664.179 169.896 655.867 164.243L654.742 165.897C663.286 171.707 674.267 176.465 687.654 180.193L688.19 178.267ZM656.218 165.477L672.653 128.561L670.826 127.747L654.391 164.664L656.218 165.477ZM671.202 128.997C679.205 134.105 688.386 138.353 698.736 141.747L699.359 139.846C689.145 136.497 680.12 132.317 672.278 127.311L671.202 128.997ZM698.755 141.753C709.295 144.983 719.76 146.601 730.149 146.601V144.601C719.971 144.601 709.703 143.016 699.341 139.84L698.755 141.753ZM730.149 146.601C737.105 146.601 742.769 146.008 747.106 144.794L746.567 142.868C742.476 144.013 737.015 144.601 730.149 144.601V146.601ZM747.142 144.783C751.43 143.411 754.654 141.656 756.677 139.449L755.202 138.098C753.517 139.937 750.672 141.554 746.532 142.878L747.142 144.783ZM756.674 139.452C758.86 137.084 759.974 134.316 759.974 131.188H757.974C757.974 133.791 757.065 136.08 755.205 138.095L756.674 139.452ZM759.974 131.188C759.974 126.767 757.915 123.261 753.948 120.736L752.874 122.423C756.324 124.619 757.974 127.518 757.974 131.188H759.974ZM753.948 120.736C750.124 118.302 745.213 116.33 739.247 114.796L738.749 116.733C744.584 118.233 749.281 120.137 752.874 122.423L753.948 120.736ZM739.247 114.796C733.33 113.274 726.741 111.754 719.481 110.234L719.071 112.191C726.308 113.706 732.867 115.22 738.749 116.733L739.247 114.796ZM719.485 110.235C712.441 108.725 705.31 106.796 698.093 104.446L697.474 106.348C704.753 108.718 711.951 110.666 719.066 112.191L719.485 110.235ZM698.1 104.448C691.09 102.112 684.674 99.1109 678.846 95.4478L677.782 97.1411C683.754 100.895 690.317 103.962 697.467 106.346L698.1 104.448ZM678.863 95.4587C673.087 91.6633 668.387 86.7982 664.755 80.8547L663.048 81.8976C666.833 88.091 671.74 93.1714 677.765 97.1301L678.863 95.4587ZM664.761 80.8651C661.168 74.8225 659.338 67.1737 659.338 57.8608H657.338C657.338 67.4276 659.218 75.4556 663.042 81.8872L664.761 80.8651ZM659.338 57.8608C659.338 47.4326 662.149 38.0183 667.768 29.5904L666.103 28.481C660.259 37.247 657.338 47.0494 657.338 57.8608H659.338ZM667.76 29.6015C673.535 21.1863 682.141 14.3811 693.642 9.21393L692.822 7.3896C681.061 12.6737 672.136 19.691 666.111 28.4698L667.76 29.6015ZM693.642 9.21393C705.107 4.06313 719.453 1.46333 736.723 1.46333V-0.536671C719.267 -0.536671 704.62 2.08915 692.822 7.3896L693.642 9.21393ZM736.723 1.46333C748.276 1.46333 759.575 2.80273 770.622 5.48083L771.093 3.53712C759.89 0.82103 748.432 -0.536671 736.723 -0.536671V1.46333ZM770.639 5.48482C781.849 7.99435 791.781 11.7537 800.448 16.7535L801.447 15.0211C792.582 9.90686 782.455 6.08065 771.076 3.53313L770.639 5.48482ZM800.024 15.5041L784.6 52.6734L786.447 53.4399L801.871 16.2706L800.024 15.5041ZM785.998 52.1767C777.509 47.5924 769.092 44.1898 760.747 41.976L760.234 43.9091C768.41 46.0781 776.681 49.4182 785.048 53.9365L785.998 52.1767ZM760.766 41.981C752.426 39.5983 744.326 38.4026 736.47 38.4026V40.4026C744.122 40.4026 752.036 41.5669 760.216 43.9041L760.766 41.981ZM736.47 38.4026C729.499 38.4026 723.808 39.1659 719.443 40.7374L720.12 42.6192C724.184 41.1564 729.618 40.4026 736.47 40.4026V38.4026ZM719.477 40.7259C715.158 42.108 711.916 44.0479 709.893 46.6232L711.465 47.8589C713.15 45.7142 715.977 43.9457 720.086 42.6307L719.477 40.7259ZM709.893 46.6232C707.898 49.1614 706.898 52.0767 706.898 55.3323H708.898C708.898 52.5195 709.751 50.0405 711.465 47.8589L709.893 46.6232ZM706.898 55.3323C706.898 59.5804 708.867 62.9958 712.653 65.5199L713.762 63.8558C710.468 61.66 708.898 58.8384 708.898 55.3323H706.898ZM712.699 65.5488C716.514 67.8033 721.414 69.6874 727.371 71.2191L727.869 69.2821C722.026 67.7796 717.318 65.9552 713.716 63.8269L712.699 65.5488ZM727.403 71.2268C733.474 72.576 740.051 74.0094 747.133 75.5269L747.552 73.5713C740.474 72.0546 733.903 70.6223 727.837 69.2744L727.403 71.2268ZM747.138 75.5279C754.348 77.0371 761.475 78.9655 768.519 81.3134L769.151 79.416C762.035 77.044 754.834 75.0954 747.547 73.5703L747.138 75.5279ZM768.546 81.3219C775.709 83.4875 782.194 86.4825 788.008 90.3031L789.107 88.6317C783.121 84.6982 776.458 81.6247 769.124 79.4075L768.546 81.3219ZM788.025 90.314C793.781 93.9319 798.387 98.7817 801.848 104.879L803.587 103.892C799.968 97.5157 795.134 92.4199 789.09 88.6208L788.025 90.314ZM801.864 104.907C805.451 110.778 807.28 118.253 807.28 127.395H809.28C809.28 117.995 807.4 110.131 803.57 103.864L801.864 104.907ZM807.28 127.395C807.28 137.473 804.393 146.804 798.601 155.409L800.26 156.526C806.267 147.6 809.28 137.883 809.28 127.395H807.28ZM798.598 155.413C792.993 163.82 784.476 170.623 772.977 175.789L773.796 177.614C785.559 172.329 794.405 165.309 800.262 156.522L798.598 155.413ZM772.971 175.792C761.68 180.939 747.336 183.54 729.896 183.54V185.54C747.517 185.54 762.168 182.915 773.801 177.611L772.971 175.792Z" fill="white" fill-opacity="0.12"/>
</svg>
