<svg width="58" height="58" viewBox="0 0 58 58" fill="none" xmlns="http://www.w3.org/2000/svg">
<rect x="0.00488281" y="0.248047" width="57.2035" height="57.2035" rx="28.6018" fill="#26C3D6" fill-opacity="0.38"/>
<path fill-rule="evenodd" clip-rule="evenodd" d="M28.6064 14.7422C31.4909 14.7422 34.3105 15.6096 36.7089 17.2348C39.1072 18.8599 40.9764 21.1698 42.0803 23.8723C43.1841 26.5748 43.4729 29.5486 42.9102 32.4176C42.3475 35.2866 40.9585 37.9219 38.9189 39.9903C36.8793 42.0587 34.2806 43.4673 31.4516 44.038C28.6226 44.6087 25.6903 44.3158 23.0254 43.1964C20.3605 42.077 18.0828 40.1813 16.4803 37.7491C14.8778 35.3169 14.0225 32.4574 14.0225 29.5322C14.0225 25.6096 15.559 21.8477 18.294 19.0741C21.029 16.3004 24.7385 14.7422 28.6064 14.7422Z" fill="url(#paint0_radial_1599_1023)"/>
<path d="M39.2065 17.4522V16.0442H38.6611V15.7851H40.0585V16.0442H39.5131V17.4522H39.2065ZM40.2884 17.4522V15.7812H40.5438L41.2642 17.0001H41.1365L41.8441 15.7812H42.0996V17.4522H41.8109V16.2424H41.8671L41.2642 17.2605H41.1288L40.517 16.2424H40.5873V17.4522H40.2948H40.2884Z" fill="#7C8A99"/>
<path fill-rule="evenodd" clip-rule="evenodd" d="M32.2666 16.332C29.9598 15.437 29.6711 12.367 28.3351 11.5898C28.3351 11.5898 28.3555 15.7465 27.5879 17.3463L29.5971 17.6196L31.8412 17.0846L32.2666 16.332Z" fill="url(#paint1_radial_1599_1023)"/>
<path fill-rule="evenodd" clip-rule="evenodd" d="M35.7575 16.641C37.7684 17.7888 39.4821 19.404 40.7578 21.354C42.0335 23.3039 42.8348 25.5331 43.0958 27.8582C43.3568 30.1833 43.0701 32.538 42.2592 34.7289C41.4484 36.9198 40.1365 38.8843 38.4314 40.461C36.7263 42.0377 34.6766 43.1817 32.4508 43.7989C30.2249 44.416 27.8865 44.4888 25.6275 44.0112C23.3686 43.5336 21.2536 42.5193 19.4563 41.0516C17.6591 39.5839 16.2309 37.7047 15.2891 35.5683C19.2908 40.0709 26.7309 39.883 27.6531 35.4155C28.5753 30.9479 25.1867 29.1319 21.8504 29.0477C18.2485 28.957 16.8205 26.9648 16.6136 23.6747L22.5938 21.5633C24.0589 21.0451 24.5506 19.2317 26.1791 17.9105C26.5534 17.6074 27.0004 17.4882 27.5216 17.2628C28.0427 17.0374 28.781 17.0037 29.4835 16.8885C30.633 16.7058 31.5373 16.3379 32.4838 16.3418C33.5816 16.3427 34.6772 16.4428 35.7575 16.641Z" fill="#EDE7F6"/>
<path fill-rule="evenodd" clip-rule="evenodd" d="M18.155 39.8463C16.9607 38.6025 15.991 37.1557 15.29 35.5718C19.2918 40.0743 26.7319 39.8865 27.6541 35.4189C28.5763 30.9513 25.1877 29.1353 21.8514 29.0511C19.666 28.9954 18.275 28.2402 17.4818 26.9203L17.5751 26.7402C18.0209 27.3726 18.6506 27.8478 19.3761 28.099C20.5665 28.4967 23.9142 26.7558 25.3499 27.1923C25.3499 27.1923 30.3147 27.2739 31.3608 31.9772C33.2128 40.2958 23.2194 45.1222 18.155 39.8463Z" fill="#ACBAC9"/>
<path fill-rule="evenodd" clip-rule="evenodd" d="M17.8896 27.4802C17.1028 26.5644 16.7132 25.2782 16.6123 23.6746L18.6751 22.9453C18.6751 22.9453 19.3138 24.6849 17.5256 25.4388C17.8551 27.1331 18.8769 27.8624 20.0444 27.8326C21.7789 27.7885 23.493 26.3818 25.3502 27.1849C23.6897 27.0942 22.1889 27.9712 20.8797 28.2704C19.748 28.5295 18.753 28.4893 17.8832 27.4751L17.8896 27.4802Z" fill="#330099"/>
<path fill-rule="evenodd" clip-rule="evenodd" d="M37.4234 17.7497C40.1419 19.8461 42.0489 22.8431 42.8122 26.2188C43.5756 29.5945 43.1469 33.1348 41.6009 36.2229C40.0549 39.3111 37.4895 41.7512 34.3517 43.1183C31.214 44.4853 27.7027 44.6927 24.4297 43.7041C32.4944 44.7494 36.9074 37.006 34.9915 28.4193C33.8598 30.8338 31.3602 31.9814 31.3602 31.9814C34.0425 28.782 33.5035 25.3753 30.9438 23.0761C28.3841 20.7769 24.9406 22.352 24.9406 22.352C25.0006 21.6875 25.9088 21.0567 26.7416 20.6772C27.5743 20.2976 28.5298 19.2134 27.8132 18.2627C27.1171 17.3352 25.9765 18.0969 25.919 18.1331C26.6854 17.435 27.7289 16.8378 29.3153 16.5787C30.2897 16.4217 31.2741 16.3377 32.2607 16.3275C32.824 15.0438 33.7053 13.6682 35.0605 12.8301C35.0605 12.8301 37.1808 14.3676 37.4183 17.7419L37.4234 17.7497Z" fill="url(#paint2_radial_1599_1023)"/>
<path fill-rule="evenodd" clip-rule="evenodd" d="M31.9453 20.334H31.9517H31.9453ZM32.1395 20.4506C32.4383 20.5892 33.0476 20.7097 33.7118 19.9325C33.7118 19.9325 33.4563 21.8133 34.3875 22.9117C34.2329 22.4622 34.1754 21.9907 34.3364 21.5659C34.8575 20.1928 36.3609 19.7693 36.5537 17.9131C36.7466 16.0569 36.1067 14.6994 35.0798 13.3535C35.0798 13.3535 33.22 14.5905 32.8931 16.6281C32.5661 18.6656 32.9671 19.676 32.5099 20.3107C32.4745 20.3738 32.4185 20.4224 32.3516 20.4481C32.2847 20.4739 32.211 20.4752 32.1433 20.4519L32.1395 20.4506Z" fill="#E6E6E6"/>
<path fill-rule="evenodd" clip-rule="evenodd" d="M35.5713 24.7914C35.5713 24.7914 39.4542 24.8989 42.0854 23.8639C41.0918 21.4452 39.4851 19.336 37.4285 17.75C37.5562 19.5557 37.1423 21.8873 35.5751 24.7914H35.5713Z" fill="url(#paint3_linear_1599_1023)"/>
<path fill-rule="evenodd" clip-rule="evenodd" d="M27.9886 19.4123C28.9912 19.481 29.9786 19.5975 31.3453 19.4797C31.5184 18.3949 31.8279 17.337 32.2662 16.332C31.2796 16.3418 30.2952 16.4253 29.3208 16.582C28.7748 16.6657 28.2394 16.8095 27.7242 17.0108C26.9321 17.3226 26.2154 17.8037 25.623 18.4214C25.7188 18.3229 25.8197 18.2258 25.9245 18.1312C25.982 18.0924 27.1226 17.3294 27.8187 18.2608C27.9456 18.4207 28.0282 18.6121 28.058 18.8151C28.0879 19.0182 28.0639 19.2256 27.9886 19.4162V19.4123Z" fill="url(#paint4_linear_1599_1023)"/>
<path fill-rule="evenodd" clip-rule="evenodd" d="M24.8896 22.4884C24.8896 22.4884 24.9165 21.57 25.9255 21.0843C27.1045 20.5156 27.8184 21.8615 26.6536 22.0817C26.218 22.1659 25.5692 22.2112 24.8896 22.4884Z" fill="#330099"/>
<path fill-rule="evenodd" clip-rule="evenodd" d="M34.8659 20.6869C36.2862 18.8229 35.9375 17.3994 35.47 16.5885C35.4381 16.5315 35.4036 16.4771 35.3704 16.4266C35.2284 16.2052 35.0564 16.005 34.8595 15.832C34.8847 15.9482 34.8976 16.0667 34.8978 16.1857C34.8988 16.2896 34.8928 16.3934 34.8799 16.4965C34.765 17.4292 34.1659 18.4007 34.1659 18.4007C34.1497 18.0384 34.0623 17.6832 33.9087 17.3557C33.7552 17.0283 33.5387 16.7353 33.2718 16.4939C33.457 17.8553 33.1058 20.7219 32.1759 20.4576H32.1504C32.4506 20.5962 33.0585 20.7167 33.7214 19.9395C33.7214 19.9395 33.466 21.8203 34.3971 22.9187C34.2413 22.4693 34.1838 21.9978 34.346 21.5729C34.4722 21.2524 34.651 20.9559 34.8748 20.696L34.8659 20.6869Z" fill="#330099"/>
<defs>
<radialGradient id="paint0_radial_1599_1023" cx="0" cy="0" r="1" gradientUnits="userSpaceOnUse" gradientTransform="translate(17.5761 15.1008) rotate(57.7895) scale(29.5256 29.3497)">
<stop stop-color="#A7FFEB"/>
<stop offset="0.52" stop-color="#0091EA"/>
<stop offset="1" stop-color="#6200EA"/>
</radialGradient>
<radialGradient id="paint1_radial_1599_1023" cx="0" cy="0" r="1" gradientUnits="userSpaceOnUse" gradientTransform="translate(29.0784 12.1555) rotate(76.8546) scale(6.90065 6.81454)">
<stop stop-color="#69F0AE"/>
<stop offset="0.45" stop-color="#00B0FF"/>
<stop offset="0.77" stop-color="#2962FF"/>
<stop offset="1" stop-color="#6200EA"/>
</radialGradient>
<radialGradient id="paint2_radial_1599_1023" cx="0" cy="0" r="1" gradientUnits="userSpaceOnUse" gradientTransform="translate(37.659 7.24464) rotate(105.734) scale(33.5691 33.1707)">
<stop stop-color="#69F0AE"/>
<stop offset="0.45" stop-color="#00B0FF"/>
<stop offset="0.77" stop-color="#2962FF"/>
<stop offset="1" stop-color="#6200EA"/>
</radialGradient>
<linearGradient id="paint3_linear_1599_1023" x1="38.8284" y1="17.75" x2="38.8284" y2="24.7946" gradientUnits="userSpaceOnUse">
<stop stop-color="#CCFF90"/>
<stop offset="1" stop-color="#09A1FF" stop-opacity="0"/>
</linearGradient>
<linearGradient id="paint4_linear_1599_1023" x1="28.9446" y1="16.332" x2="28.9446" y2="19.5301" gradientUnits="userSpaceOnUse">
<stop stop-color="#CCFF90"/>
<stop offset="1" stop-color="#CCFF90" stop-opacity="0"/>
</linearGradient>
</defs>
</svg>
