<svg width="58" height="58" viewBox="0 0 58 58" fill="none" xmlns="http://www.w3.org/2000/svg">
<rect x="0.748047" y="0.248047" width="57.2035" height="57.2035" rx="28.6018" fill="#26C3D6" fill-opacity="0.38"/>
<path d="M40.5988 22.3088H37.0952V21.0453C37.7538 20.9939 38.2807 20.4524 38.2807 19.8078C38.2807 19.1118 37.7012 18.5703 37.0163 18.5703H21.684C20.9728 18.5703 20.4196 19.1375 20.4196 19.8078C20.4196 20.4781 20.9465 21.0196 21.6051 21.0453V22.3088H18.1013C17.3901 22.3088 16.8369 22.876 16.8369 23.5463V24.5518C16.8369 27.9809 19.1815 30.9718 22.5537 31.8483L24.3187 32.3124L24.345 32.3381C24.3976 32.3896 24.4504 32.467 24.5029 32.5187C25.3195 33.3438 26.3206 33.911 27.4799 34.2205V36.0511C27.4799 36.4894 27.1374 36.8246 26.6896 36.8246H25.3198C24.7665 36.8246 24.3187 37.2629 24.3187 37.8044V39.0419C24.3187 39.5833 24.7665 40.0216 25.3198 40.0216H33.3806C33.9338 40.0216 34.3817 39.5833 34.3817 39.0419V37.8044C34.3817 37.2629 33.9338 36.8246 33.3806 36.8246H32.0108C31.563 36.8246 31.2205 36.4894 31.2205 36.0511V34.2205C32.3796 33.911 33.3806 33.3438 34.1974 32.5187C34.25 32.4672 34.3028 32.3898 34.3554 32.3381L34.3817 32.3124L36.1467 31.8483C39.5186 30.9717 41.8635 27.955 41.8635 24.5518V23.5463C41.8637 22.8502 41.2842 22.3088 40.5991 22.3088H40.5988ZM19.3923 24.7841H21.6315C21.6841 25.8153 21.8948 27.4914 22.5009 29.1672C20.683 28.4195 19.4714 26.7436 19.3923 24.7841ZM33.0119 25.7122L31.7738 26.8725C31.5893 27.053 31.5104 27.3108 31.5367 27.5428L31.8529 29.1929C31.8791 29.3475 31.8266 29.5023 31.6949 29.6055C31.5632 29.7086 31.3787 29.7086 31.247 29.6312L29.7456 28.832C29.6402 28.7805 29.5085 28.7288 29.3768 28.7288C29.2452 28.7288 29.1135 28.7546 29.0081 28.832L27.5066 29.6312C27.3486 29.7086 27.1905 29.7086 27.0588 29.6055C26.9271 29.5023 26.848 29.3477 26.8743 29.1929L27.1905 27.5428C27.243 27.285 27.1642 27.027 26.9534 26.8725L25.7153 25.7122C25.5836 25.609 25.5573 25.4285 25.6099 25.2738C25.6625 25.1192 25.7944 25.0161 25.9523 24.9901L27.6383 24.7581C27.9017 24.7324 28.1124 24.5776 28.2178 24.3455L28.9555 22.85C29.0346 22.6954 29.1663 22.618 29.3508 22.618C29.5088 22.618 29.667 22.6954 29.7461 22.85L30.4838 24.3455C30.5892 24.5776 30.8262 24.7324 31.0633 24.7581L32.7493 24.9901C32.9072 25.0159 33.0391 25.119 33.0917 25.2738C33.1702 25.4544 33.1174 25.6092 33.012 25.7122H33.0119ZM36.1996 29.193C36.8054 27.5171 36.9899 25.8153 37.069 24.7841H39.3082C39.2291 26.7437 38.0172 28.4195 36.1996 29.193Z" fill="white"/>
</svg>
