<svg width="59" height="58" viewBox="0 0 59 58" fill="none" xmlns="http://www.w3.org/2000/svg">
<rect x="0.960938" y="0.248047" width="57.2035" height="57.2035" rx="28.6018" fill="#26C3D6" fill-opacity="0.38"/>
<path fill-rule="evenodd" clip-rule="evenodd" d="M23.2374 32.0764V37.047C23.2371 37.2015 23.3273 37.3419 23.4677 37.4065L29.3935 40.1172C29.5055 40.1685 29.635 40.1647 29.7438 40.1069L35.6696 36.944C35.7984 36.8753 35.8789 36.7411 35.8786 36.5952V32.0764H35.0886V36.3581L29.5447 39.3177L24.0274 36.7931V32.0762H23.2373L23.2374 32.0764Z" fill="white" fill-opacity="0.58"/>
<path d="M19.7798 21.0332C19.7241 21.0356 19.6692 21.0491 19.6194 21.0739C18.596 21.5817 17.5609 22.0798 16.5367 22.6098C16.4055 22.6776 16.3232 22.813 16.3232 22.9607V26.0958C16.3232 26.2456 16.4082 26.3824 16.5424 26.4491C17.5716 26.9604 18.6034 27.455 19.6126 27.9788C19.7249 28.0371 19.8588 28.0383 19.9721 27.9823C21.0001 27.4656 22.0104 26.9289 23.0367 26.4556C23.1768 26.3913 23.2664 26.2512 23.2667 26.097V22.9619C23.2667 22.8118 23.1818 22.6746 23.0476 22.608C22.022 22.0969 20.9966 21.5865 19.9712 21.0757C19.9119 21.0462 19.8462 21.032 19.7798 21.0344L19.7798 21.0332Z" fill="white"/>
<path fill-rule="evenodd" clip-rule="evenodd" d="M13.4736 28.4104V33.381C13.4736 33.5355 13.5639 33.6756 13.7045 33.7399L19.6303 36.4512C19.7441 36.5034 19.876 36.4984 19.9857 36.4376L24.0117 34.2144L23.6301 33.5231L19.7778 35.6497L14.2637 33.1271V28.4102H13.4736L13.4736 28.4104Z" fill="white" fill-opacity="0.58"/>
<path d="M39.3453 21.0332C39.4011 21.0356 39.4559 21.0491 39.5058 21.0739C40.5291 21.5817 41.5642 22.0798 42.5884 22.6098C42.7196 22.6776 42.8019 22.813 42.8019 22.9607V26.0958C42.8019 26.2456 42.717 26.3824 42.5828 26.4491C41.5536 26.9604 40.5217 27.455 39.5126 27.9788C39.4002 28.0371 39.2663 28.0383 39.1531 27.9823C38.1251 27.4656 37.1147 26.9289 36.0884 26.4556C35.9483 26.3913 35.8587 26.2512 35.8584 26.097V22.9619C35.8584 22.8118 35.9433 22.6746 36.0775 22.608C37.1032 22.0969 38.1286 21.5865 39.1539 21.0757C39.2132 21.0462 39.279 21.032 39.3453 21.0344L39.3453 21.0332Z" fill="white"/>
<path fill-rule="evenodd" clip-rule="evenodd" d="M44.8622 28.4102V33.1272L39.3481 35.6497L35.4959 33.5232L35.1143 34.2144L39.1403 36.4377C39.2497 36.4982 39.3818 36.5032 39.4956 36.4513L45.4214 33.7399C45.562 33.6757 45.6523 33.5353 45.6523 33.3807V28.4102L44.8622 28.4102Z" fill="white" fill-opacity="0.58"/>
<path d="M29.5415 24.6973C29.4858 24.6996 29.4309 24.7132 29.3811 24.738C28.3577 25.2458 27.3226 25.7439 26.2985 26.2738C26.1672 26.3417 26.085 26.477 26.085 26.6248V29.7598C26.085 29.9097 26.1699 30.0465 26.3041 30.1131C27.3333 30.6245 28.3658 31.119 29.3749 31.6428C29.4873 31.7012 29.6209 31.7021 29.7338 31.6464C30.7618 31.1297 31.7728 30.5924 32.7991 30.1191C32.9388 30.0545 33.0285 29.9147 33.0285 29.7605V26.6254C33.0285 26.4753 32.9436 26.3382 32.8094 26.2715C31.7837 25.7605 30.7583 25.25 29.733 24.7392C29.6737 24.7097 29.6079 24.6956 29.5416 24.6979L29.5415 24.6973Z" fill="white"/>
<path d="M29.5415 15.7598C29.4858 15.7621 29.4309 15.776 29.3811 15.8011C28.3577 16.3089 27.3226 16.8066 26.2985 17.3366C26.1672 17.4044 26.085 17.5398 26.085 17.6876V20.8226C26.085 20.9727 26.1699 21.1099 26.3041 21.1765C27.3333 21.6879 28.3658 22.1824 29.3749 22.7062C29.4873 22.7646 29.6209 22.7655 29.7338 22.7086C30.7618 22.1919 31.7722 21.6552 32.7984 21.1818C32.9385 21.1172 33.0285 20.9772 33.0285 20.8229V17.6878C33.0285 17.538 32.9435 17.4012 32.8094 17.3345C31.7837 16.8235 30.7583 16.3127 29.7329 15.8016C29.6737 15.7721 29.6079 15.758 29.5415 15.7603L29.5415 15.7598Z" fill="white"/>
</svg>
