<svg width="58" height="58" viewBox="0 0 58 58" fill="none" xmlns="http://www.w3.org/2000/svg">
<rect x="0.217773" y="0.248047" width="57.2035" height="57.2035" rx="28.6018" fill="#26C3D6" fill-opacity="0.38"/>
<path fill-rule="evenodd" clip-rule="evenodd" d="M38.6513 18.1244V37.7884C38.6513 39.0416 37.6356 40.0576 36.3824 40.0576H21.2565C20.0033 40.0576 18.9873 39.0416 18.9873 37.7884V18.1244C18.9873 16.8715 20.0033 15.8555 21.2565 15.8555H36.3824C37.6356 15.8555 38.6513 16.8715 38.6513 18.1244ZM31.0884 17.3683H21.2563C20.8386 17.3683 20.5 17.7066 20.5 18.1244V37.7884C20.5 38.2061 20.8386 38.5448 21.2563 38.5448H36.3823C36.8 38.5448 37.1387 38.2061 37.1387 37.7884V22.6624H31.8443C31.4266 22.6624 31.0882 22.3238 31.0882 21.9061L31.0884 17.3683ZM37.1389 20.2393V18.1243C37.1389 17.7066 36.8002 17.3682 36.3825 17.3682H33.8573L37.1389 20.2393Z" fill="white" fill-opacity="0.63"/>
<rect x="22.2881" y="21.9062" width="6.60057" height="1.65014" rx="0.825072" fill="white"/>
<rect x="22.2881" y="25.7559" width="12.6511" height="1.65014" rx="0.825072" fill="white"/>
<rect x="22.2881" y="29.6055" width="12.6511" height="1.65014" rx="0.825072" fill="white"/>
<rect x="22.2881" y="33.457" width="12.6511" height="1.65014" rx="0.825072" fill="white"/>
</svg>
