<svg width="59" height="58" viewBox="0 0 59 58" fill="none" xmlns="http://www.w3.org/2000/svg">
<rect x="0.982422" y="0.248047" width="57.2035" height="57.2035" rx="28.6018" fill="#26C3D6" fill-opacity="0.38"/>
<mask id="mask0_1599_2460" style="mask-type:luminance" maskUnits="userSpaceOnUse" x="22" y="16" width="15" height="11">
<path d="M22.7891 16.7832H36.3779V26.9177H22.7891V16.7832Z" fill="white"/>
</mask>
<g mask="url(#mask0_1599_2460)">
<path d="M36.3478 18.3108C36.3478 17.9057 36.1869 17.5172 35.9003 17.2305C35.6139 16.9441 35.2253 16.7832 34.8202 16.7832H24.3459C23.9407 16.7832 23.5521 16.9441 23.2657 17.2305C22.9793 17.5171 22.8184 17.9057 22.8184 18.3108V26.9081H36.3477L36.3478 18.3108ZM32.2736 20.949L29.4398 24.4404H29.44C29.3156 24.5936 29.1289 24.6824 28.9317 24.6824C28.7345 24.6824 28.5478 24.5936 28.4235 24.4404L26.8925 22.5541C26.6646 22.2733 26.7078 21.861 26.9885 21.6333C27.2694 21.4055 27.6817 21.4484 27.9093 21.7291L28.9319 22.9891L31.2567 20.124C31.4845 19.8433 31.8968 19.8003 32.1778 20.0279C32.4585 20.2557 32.5014 20.668 32.2736 20.949L32.2736 20.949Z" fill="white" fill-opacity="0.7"/>
</g>
<mask id="mask1_1599_2460" style="mask-type:luminance" maskUnits="userSpaceOnUse" x="18" y="32" width="23" height="8">
<path d="M18.4121 32.5801H40.7572V39.1287H18.4121V32.5801Z" fill="white"/>
</mask>
<g mask="url(#mask1_1599_2460)">
<path d="M40.7423 32.582H18.4288C18.4184 32.6543 18.4133 32.7273 18.4131 32.8003V37.6012C18.4131 38.0063 18.574 38.3948 18.8604 38.6812C19.147 38.9678 19.5356 39.1288 19.9407 39.1288H39.2307C39.6358 39.1288 40.0243 38.9678 40.3108 38.6812C40.5974 38.3948 40.7583 38.0063 40.7583 37.6012V32.8003C40.7581 32.7273 40.7529 32.6543 40.7424 32.582H40.7423Z" fill="white" fill-opacity="0.7"/>
</g>
<path d="M38.0539 29.7469C38.0539 29.4344 37.8903 29.1346 37.5994 28.9136C37.3085 28.6925 36.914 28.5684 36.5026 28.5684H22.3199C21.9085 28.5684 21.5139 28.6925 21.223 28.9136C20.932 29.1346 20.7686 29.4344 20.7686 29.7469V30.9254L38.0538 30.9253L38.0539 29.7469Z" fill="white"/>
</svg>
