<svg width="554" height="181" viewBox="0 0 554 181" fill="none" xmlns="http://www.w3.org/2000/svg">
<path d="M0.722195 177H-0.277805V178H0.722195V177ZM0.722195 0.00326538V-0.996735H-0.277805V0.00326538H0.722195ZM143.331 12.8987L142.731 13.6988L142.739 13.7044L143.331 12.8987ZM153.192 70.2962L152.376 69.7188L152.373 69.7228L153.192 70.2962ZM132.964 86.4788L133.375 87.3904L133.383 87.3868L132.964 86.4788ZM102.116 92.2944L101.193 91.9098L100.616 93.2944H102.116V92.2944ZM107.173 80.1575V79.1575H106.506L106.25 79.7729L107.173 80.1575ZM139.791 85.9731L139.405 86.8957L139.412 86.8987L139.42 86.9016L139.791 85.9731ZM161.284 102.409L160.463 102.981L160.471 102.992L160.479 103.002L161.284 102.409ZM150.411 164.357L150.976 165.182L150.978 165.181L150.411 164.357ZM50.2813 140.842H49.2813V141.842H50.2813V140.842ZM111.724 136.544L112.272 137.381L112.279 137.376L111.724 136.544ZM111.724 109.488L111.155 110.311L111.173 110.323L111.192 110.335L111.724 109.488ZM46.7413 104.937H45.7413V105.937H46.7413V104.937ZM46.7413 70.2962V69.2962H45.7413V70.2962H46.7413ZM103.633 65.9978L104.195 66.8247L103.633 65.9978ZM103.633 40.4597L103.071 41.2866L103.082 41.2944L103.094 41.3019L103.633 40.4597ZM50.2813 36.1612V35.1612H49.2813V36.1612H50.2813ZM1.72219 177V0.00326538H-0.277805V177H1.72219ZM0.722195 1.00327H91.2434V-0.996735H0.722195V1.00327ZM91.2434 1.00327C114.414 1.00327 131.52 5.29028 142.731 13.6987L143.931 12.0987C132.217 3.31324 114.598 -0.996735 91.2434 -0.996735V1.00327ZM142.739 13.7044C153.954 21.9509 159.525 32.7816 159.525 46.2753H161.525C161.525 32.1237 155.633 20.7034 143.923 12.0931L142.739 13.7044ZM159.525 46.2753C159.525 55.1875 157.136 62.9893 152.376 69.7188L154.009 70.8737C159.026 63.7806 161.525 55.5684 161.525 46.2753H159.525ZM152.373 69.7228C147.771 76.2972 141.178 81.5864 132.545 85.5709L133.383 87.3868C142.281 83.2799 149.174 77.7807 154.011 70.8697L152.373 69.7228ZM132.553 85.5672C124.115 89.3726 113.979 91.2944 102.116 91.2944V93.2944C114.189 93.2944 124.619 91.3392 133.375 87.3904L132.553 85.5672ZM103.039 92.679L108.096 80.5421L106.25 79.7729L101.193 91.9098L103.039 92.679ZM107.173 81.1575C119.546 81.1575 130.282 83.0804 139.405 86.8957L140.177 85.0505C130.758 81.1116 119.749 79.1575 107.173 79.1575V81.1575ZM139.42 86.9016C148.534 90.5473 155.532 95.9124 160.463 102.981L162.104 101.836C156.921 94.4077 149.591 88.8159 140.162 85.0446L139.42 86.9016ZM160.479 103.002C165.557 109.883 168.122 118.346 168.122 128.452H170.122C170.122 117.993 167.461 109.094 162.088 101.815L160.479 103.002ZM168.122 128.452C168.122 143.468 162.043 155.126 149.843 163.534L150.978 165.181C163.727 156.394 170.122 144.116 170.122 128.452H168.122ZM149.846 163.532C137.779 171.797 119.977 176 96.3004 176V178C120.16 178 138.432 173.774 150.976 165.182L149.846 163.532ZM96.3004 176H0.722195V178H96.3004V176ZM50.2813 141.842H92.2548V139.842H50.2813V141.842ZM92.2548 141.842C100.934 141.842 107.652 140.401 112.272 137.381L111.177 135.707C107.031 138.418 100.77 139.842 92.2548 139.842V141.842ZM112.279 137.376C117.143 134.133 119.551 129.249 119.551 122.89H117.551C117.551 128.667 115.409 132.885 111.17 135.712L112.279 137.376ZM119.551 122.89C119.551 116.53 117.141 111.717 112.257 108.642L111.192 110.335C115.411 112.991 117.551 117.113 117.551 122.89H119.551ZM112.294 108.666C107.67 105.465 100.941 103.937 92.2548 103.937V105.937C100.762 105.937 107.014 107.443 111.155 110.311L112.294 108.666ZM92.2548 103.937H46.7413V105.937H92.2548V103.937ZM47.7413 104.937V70.2962H45.7413V104.937H47.7413ZM46.7413 71.2962H84.6692V69.2962H46.7413V71.2962ZM84.6692 71.2962C93.1797 71.2962 99.7389 69.8551 104.195 66.8247L103.071 65.1708C99.099 67.8717 93.0155 69.2962 84.6692 69.2962V71.2962ZM104.195 66.8247C108.721 63.7473 110.954 59.1165 110.954 53.1023H108.954C108.954 58.5507 106.974 62.5169 103.071 65.1708L104.195 66.8247ZM110.954 53.1023C110.954 47.0883 108.719 42.5276 104.172 39.6174L103.094 41.3019C106.975 43.7859 108.954 47.6537 108.954 53.1023H110.954ZM104.195 39.6327C99.7389 36.6023 93.1797 35.1612 84.6692 35.1612V37.1612C93.0155 37.1612 99.099 38.5857 103.071 41.2866L104.195 39.6327ZM84.6692 35.1612H50.2813V37.1612H84.6692V35.1612ZM49.2813 36.1612V140.842H51.2813V36.1612H49.2813ZM215.534 159.047L216.233 158.332L215.534 159.047ZM193.536 0.00326538V-0.996735H192.536V0.00326538H193.536ZM243.601 0.00326538H244.601V-0.996735H243.601V0.00326538ZM252.451 129.211L251.706 129.879L251.716 129.889L252.451 129.211ZM301.757 129.211L301.013 128.543L301.757 129.211ZM310.607 0.00326538V-0.996735H309.607V0.00326538H310.607ZM359.913 0.00326538H360.913V-0.996735H359.913V0.00326538ZM337.915 159.047L337.216 158.332L337.915 159.047ZM276.724 179.54C250.783 179.54 230.664 172.432 216.233 158.332L214.835 159.763C229.735 174.32 250.41 181.54 276.724 181.54V179.54ZM216.233 158.332C201.811 144.241 194.536 124.217 194.536 98.11H192.536C192.536 124.596 199.927 145.197 214.835 159.763L216.233 158.332ZM194.536 98.11V0.00326538H192.536V98.11H194.536ZM193.536 1.00327H243.601V-0.996735H193.536V1.00327ZM242.601 0.00326538V96.5929H244.601V0.00326538H242.601ZM242.601 96.5929C242.601 111.848 245.559 123.028 251.706 129.879L253.195 128.543C247.543 122.245 244.601 111.68 244.601 96.5929H242.601ZM251.716 129.889C258.006 136.703 266.551 140.072 277.23 140.072V138.072C267.007 138.072 259.032 134.867 253.185 128.533L251.716 129.889ZM277.23 140.072C287.909 140.072 296.377 136.703 302.501 129.879L301.013 128.543C295.337 134.867 287.454 138.072 277.23 138.072V140.072ZM302.501 129.879C308.649 123.028 311.607 111.848 311.607 96.5929H309.607C309.607 111.68 306.665 122.245 301.013 128.543L302.501 129.879ZM311.607 96.5929V0.00326538H309.607V96.5929H311.607ZM310.607 1.00327H359.913V-0.996735H310.607V1.00327ZM358.913 0.00326538V98.11H360.913V0.00326538H358.913ZM358.913 98.11C358.913 124.217 351.638 144.241 337.216 158.332L338.614 159.763C353.522 145.197 360.913 124.596 360.913 98.11H358.913ZM337.216 158.332C322.785 172.432 302.666 179.54 276.724 179.54V181.54C303.039 181.54 323.714 174.32 338.614 159.763L337.216 158.332ZM436.114 177H435.114V178H436.114V177ZM436.114 102.156L437.047 101.795L435.114 102.156H436.114ZM447.746 132.245L446.888 132.759L448.678 131.885L447.746 132.245ZM368.603 0.00326538V-0.996735H366.839L367.745 0.516792L368.603 0.00326538ZM421.449 0.00326538L422.308 -0.508896L422.017 -0.996735H421.449V0.00326538ZM478.594 95.8344V96.8344H480.354L479.452 95.3222L478.594 95.8344ZM447.998 95.8344L447.141 95.3205L446.234 96.8344H447.998V95.8344ZM505.396 0.00326538V-0.996735H504.829L504.538 -0.510567L505.396 0.00326538ZM553.944 0.00326538L554.802 0.515587L555.705 -0.996735H553.944V0.00326538ZM475.054 132.245L474.116 131.898L475.912 132.757L475.054 132.245ZM486.179 102.156H487.179L485.241 101.809L486.179 102.156ZM486.179 177V178H487.179V177H486.179ZM437.114 177V102.156H435.114V177H437.114ZM435.182 102.516L446.813 132.606L448.678 131.885L437.047 101.795L435.182 102.516ZM448.604 131.732L369.461 -0.510269L367.745 0.516792L446.888 132.759L448.604 131.732ZM368.603 1.00327H421.449V-0.996735H368.603V1.00327ZM420.59 0.515427L477.735 96.3465L479.452 95.3222L422.308 -0.508896L420.59 0.515427ZM478.594 94.8344H447.998V96.8344H478.594V94.8344ZM448.856 96.3482L506.254 0.517097L504.538 -0.510567L447.141 95.3205L448.856 96.3482ZM505.396 1.00327H553.944V-0.996735H505.396V1.00327ZM553.085 -0.509056L474.195 131.733L475.912 132.757L554.802 0.515587L553.085 -0.509056ZM475.992 132.592L487.117 102.502L485.241 101.809L474.116 131.898L475.992 132.592ZM485.179 102.156V177H487.179V102.156H485.179ZM486.179 176H436.114V178H486.179V176Z" fill="white" fill-opacity="0.06"/>
</svg>
