<?xml version="1.0" encoding="UTF-8"?>
<!DOCTYPE svg PUBLIC "-//W3C//DTD SVG 1.1//EN" "http://www.w3.org/Graphics/SVG/1.1/DTD/svg11.dtd">
<svg xmlns="http://www.w3.org/2000/svg" xmlns:xlink="http://www.w3.org/1999/xlink" width="100" height="33.277351" viewBox="0 0 100 33.277351">
  <metadata
     id="metadata28">
  </metadata>
  <defs
     id="defs26" />
  <g
     transform="scale(0.11996161)"
     id="g20"
     style="fill:none;fill-rule:nonzero">
    <path
       d="M 0,0 H 833.6 V 277.4 H 0 Z"
       id="path4"
       style="fill:#005eb7" />
    <path
       d="m 276.2,139 c -0.8,32.9 4.6,84.3 46.7,84.5 35.8,0.2 48.4,-31.7 48.5,-84.4 0,-42.7 -7.5,-85.9 -48,-86 -42.6,0 -46.5,59.1 -47.2,85.9 m 140.4,0 c 0,61 -24.8,120.7 -93.3,120.7 -68.6,0 -92.1,-59.3 -92.1,-120.7 0,-62.3 29.9,-121.1 91.6,-121.1 61.8,0 93.8,50.5 93.8,121.1 M 429.5,20.8 h 42.6 v 235.4 h -42.6 z m 249.4,235 h 135.2 v -35.7 h -92.5 v -67.9 h 82.2 V 117.1 H 721.6 V 55.7 h 92.2 V 20.8 H 678.9 Z m -55.6,-80.9 c -3.7,26.1 -14.7,47.6 -42.1,47.9 -29.7,0.3 -50.1,-16.7 -50.7,-83.4 -0.6,-70.5 25.8,-86.2 49.4,-86.2 23.6,0 41.6,18 43.4,46.3 h 42.8 C 663.6,44.4 624,17.7 579.9,17.7 c -44.1,0 -95.1,32 -95.1,121.2 0,89.2 42.4,120.7 96.4,120.7 54,0 83.4,-43.2 85.2,-84.8 H 623.3 Z M 112.1,20.8 H 66.9 l 64.9,235 h 45.8 l 66.6,-235 H 200 l -44.9,167.6 z"
       id="path6"
       style="fill:#ffffff" />
    <g
       id="g10"
       style="fill:#ffffff">
      <path
         d="m 34.5,260.4 h -6.4 v -4.9 l -8.8,-0.7 -0.5,-7 h 9.4 v -6 h 6.4 v 6 h 11.1 c 3.2,0 4.6,0 4.4,-3.9 L 50,241.4 h 6.1 l 0.1,0.6 c 0.2,1.5 0.5,3 0.5,4.5 0,2.3 -0.3,5.4 -1.8,7.2 -1.9,2.3 -5.2,2.3 -8,2.3 H 34.5 Z m 21.6,-46.7 v 8.1 H 41 c -2.4,0 -7,-0.3 -7,3.2 0,1.5 0.7,3.2 2.1,3.9 1.5,0.7 3.2,0.7 4.9,0.7 h 15.1 v 8.1 H 17.7 v -8.1 H 32 v -0.1 c -2.8,-1 -4.4,-4.2 -4.4,-7.3 0,-2.6 0.9,-5.3 3,-7 2.2,-1.7 5,-1.5 7.7,-1.5 z m -17.4,-22 c -3,0.2 -5.8,1.2 -5.8,4.7 0,3.6 2.6,5 5.8,5.2 z m 4.8,9.9 1.4,0.1 c 3.3,0 6,-1.9 6,-5.4 0,-2.5 -1.8,-5 -4.4,-5 l 0.5,-7.5 c 1.4,0 9.6,3.2 9.6,12.7 0,8.4 -5.8,13.8 -14.2,13.8 -8.3,0 -14.9,-4.9 -14.9,-13.6 0,-3.9 1.8,-7.9 5,-10.2 3.2,-2.3 7.2,-2.9 11,-2.9 z"
         id="path8" />
    </g>
    <path
       d="m 56.1,155 v 6.5 l -27.9,9.6 v -8.6 l 17.7,-5.4 -17.7,-5.5 v -6.1 z M 25.6,143.4 h -7.8 v -8.1 h 7.8 z m 30.5,0 h -28 v -8.1 h 28 z M 17.7,122 h 38.4 v 8.1 H 17.7 Z m 0,-13.3 h 38.4 v 8.1 H 17.7 Z"
       id="path12"
       style="fill:#ffffff" />
    <g
       id="g18"
       style="fill:#ffffff">
      <path
         d="m 42.8,87.9 c 0.3,3.1 1,8.8 5.1,8.8 2.2,0 3.7,-1.3 3.7,-3.6 0,-1.6 -0.9,-3.1 -2.3,-4.1 -1.8,-1.2 -3.4,-1.1 -5.4,-1.1 z m 13.3,-0.8 c -1.4,0.3 -2.9,0.4 -4.4,0.4 3.3,2.3 4.9,4.7 4.9,8.9 0,5 -2.6,8.8 -7.9,8.8 -4.1,0 -6.9,-2.6 -8.3,-6.3 C 39.2,95.7 39,91.2 38.6,87.8 H 38 c -1.2,0 -2.6,-0.1 -3.7,0.7 -0.9,0.7 -1.3,2.1 -1.3,3.3 0,2.6 1.3,4.8 4.1,4.8 l -0.7,7.7 c -6.8,-0.8 -8.8,-7.4 -8.8,-13.3 0,-2.9 0.7,-6.6 2.5,-8.9 2.3,-2.9 5.4,-2.6 8.8,-2.6 H 52 c 1.4,0 2.8,-0.1 4.2,-0.5 v 8.1 z m 0,-23.3 -0.1,4.4 c 0.4,1 1.2,1.8 2.3,1.8 1.3,0 1.9,-0.9 2.3,-2 0.5,-1.8 0.6,-4.3 0.6,-6.1 0,-2 0.2,-7.6 -2.7,-7.6 -1.5,0 -1.8,1.8 -1.9,3 z M 36.3,67 c 2.8,0 4.2,-1.8 4.2,-4.5 0,-2.6 -1.4,-4.8 -4.3,-4.8 -2.8,0 -4.1,2.3 -4.1,4.8 0,2.6 1.5,4.5 4.2,4.5 z m 8.3,-0.3 c 0.4,0.8 1.1,1.4 2,1.4 1.2,0 1.8,-0.5 2.1,-1.6 0.4,-1.4 0.5,-4.4 0.6,-6 L 49.5,57 c 0.3,-4.9 1.3,-10.4 7.4,-10.4 3.7,0 6.3,2.7 7.6,5.9 1.3,3 1.5,7 1.5,10.3 0,4.5 -0.2,14.4 -6.5,14.4 -2.9,0 -4.5,-2.3 -5.1,-4.8 -1,2.1 -2.5,3.6 -5,3.6 -3.5,0 -5.1,-2.8 -6.2,-5.6 -1.2,3 -3.5,5 -6.8,5 -6.8,0 -8.8,-7.4 -8.8,-12.8 0,-2.5 0.4,-5 1.2,-7.4 -4.2,-0.6 -5.5,-2.2 -5.5,-6.3 l 0.2,-2.3 h 5.2 c -0.1,0.7 -0.3,1.4 -0.3,2.1 0,1.5 0.7,3 2.4,3.2 1.7,-1.5 3.1,-2.2 5.5,-2.2 6.7,-0.1 8.7,7 8.7,12.3 z"
         id="path14" />
      <path
         d="m 38.7,28.6 c -3,0.2 -5.8,1.2 -5.8,4.7 0,3.6 2.6,5 5.8,5.2 z m 4.8,9.9 1.4,0.1 c 3.3,0 6,-1.9 6,-5.4 0,-2.5 -1.8,-5 -4.4,-5 L 47,20.7 c 1.4,0 9.6,3.2 9.6,12.7 0,8.4 -5.8,13.8 -14.2,13.8 -8.3,0 -14.9,-4.9 -14.9,-13.6 0,-3.9 1.8,-7.9 5,-10.2 3.2,-2.3 7.2,-2.9 11,-2.9 z"
         id="path16" />
    </g>
  </g>
</svg>
