<svg width="780" height="780" viewBox="0 0 780 780" fill="none" xmlns="http://www.w3.org/2000/svg">
<path d="M732 390C732 578.881 579.105 732 390.5 732C201.895 732 49 578.881 49 390C49 201.119 201.895 48 390.5 48C579.105 48 732 201.119 732 390ZM69.49 390C69.49 567.549 213.211 711.48 390.5 711.48C567.789 711.48 711.51 567.549 711.51 390C711.51 212.451 567.789 68.52 390.5 68.52C213.211 68.52 69.49 212.451 69.49 390Z" fill="#ED9682"/>
<path d="M390.392 122.039C432.667 122.039 474.35 131.958 512.071 150.995C549.791 170.031 582.49 197.651 607.526 231.621L572.241 257.479C551.274 229.029 523.889 205.897 492.298 189.954C460.707 174.011 425.798 165.704 390.392 165.704V122.039Z" fill="#A7E5E2"/>
<path d="M607.467 231.542C641.015 277.028 659.342 331.898 659.845 388.36C660.348 444.822 643.001 500.007 610.268 546.08L574.539 520.839C601.952 482.252 616.48 436.034 616.059 388.747C615.638 341.46 600.289 295.507 572.193 257.412L607.467 231.542Z" fill="#7754BE"/>
<path d="M629.937 560.452C597.081 606.719 551.481 642.473 498.669 663.375C445.857 684.277 388.104 689.429 332.417 678.205L349.842 592.044C388.823 599.9 429.25 596.294 466.218 581.663C503.187 567.031 535.107 542.004 558.106 509.616L629.937 560.452Z" fill="#F0B6DB"/>
<path d="M337.086 654.143C290.356 644.739 246.964 623.141 211.339 591.552C175.713 559.964 149.129 519.517 134.298 474.338L175.913 460.754C188.334 498.592 210.598 532.467 240.435 558.922C270.271 585.377 306.612 603.465 345.748 611.341L337.086 654.143Z" fill="#7F92F1"/>
<path d="M172.301 232.987C197.282 198.627 230.07 170.655 267.979 151.364C305.888 132.073 347.84 122.01 390.4 122L390.411 165.665C354.767 165.673 319.632 174.1 287.883 190.257C256.134 206.413 228.674 229.839 207.753 258.616L172.301 232.987Z" fill="#86B7B5"/>
<path d="M134.393 474.366C121.142 434.035 117.66 391.148 124.232 349.217C130.803 307.285 147.242 267.502 172.201 233.126L207.668 258.733C186.765 287.523 172.998 320.841 167.494 355.959C161.99 391.076 164.907 426.995 176.004 460.772L134.393 474.366Z" fill="#ECD5B5"/>
</svg>
