<svg width="719" height="718" viewBox="0 0 719 718" fill="none" xmlns="http://www.w3.org/2000/svg">
<g opacity="0.25" filter="url(#filter0_f_653_3069)">
<path d="M599.483 377.931C594.878 437.253 568.362 492.739 525.097 533.586C481.832 574.433 424.915 597.719 365.426 598.909L360.633 359.388L599.483 377.931Z" fill="#6490F5"/>
<path d="M367.563 598.857C329.681 599.953 292.079 592.047 257.846 575.786L360.633 359.388L367.563 598.857Z" fill="#2864FF"/>
<path d="M260.094 576.84C222.899 559.643 190.737 533.192 166.682 500.018C142.628 466.843 127.485 428.052 122.701 387.354L360.633 359.388L260.094 576.84Z" fill="#882DCF"/>
<path d="M118.942 357.835C119.195 313.954 131.454 270.991 154.39 233.605C177.327 196.22 210.063 165.842 249.049 145.766C288.034 125.69 331.78 116.684 375.538 119.724C419.296 122.764 461.396 137.735 497.27 163.013L359.092 359.412L118.942 357.835Z" fill="#EE4492"/>
<path d="M473.555 148.101C514.655 170.067 548.455 203.542 570.817 244.427C593.179 285.312 603.132 331.832 599.455 378.287L360.633 359.388L473.555 148.101Z" fill="#7C75FF"/>
</g>
<path d="M692 360.985C692 544.336 543.582 692.971 360.5 692.971C177.418 692.971 29 544.336 29 360.985C29 177.635 177.418 29 360.5 29C543.582 29 692 177.635 692 360.985ZM65.465 360.985C65.465 524.167 197.557 656.452 360.5 656.452C523.443 656.452 655.535 524.167 655.535 360.985C655.535 197.803 523.443 65.5184 360.5 65.5184C197.557 65.5184 65.465 197.803 65.465 360.985Z" fill="#ED9682"/>
<path d="M359.392 90.0391C401.667 90.0391 443.35 99.9582 481.071 118.995C518.791 138.031 551.49 165.651 576.526 199.621L541.241 225.479C520.274 197.029 492.889 173.897 461.298 157.954C429.707 142.011 394.798 133.704 359.392 133.704V90.0391Z" fill="#A7E5E2"/>
<path d="M576.467 199.542C610.015 245.028 628.342 299.898 628.845 356.36C629.348 412.822 612.001 468.007 579.268 514.08L543.539 488.839C570.952 450.252 585.48 404.034 585.059 356.747C584.638 309.46 569.289 263.507 541.193 225.412L576.467 199.542Z" fill="#7754BE"/>
<path d="M579.22 514.148C549.055 556.58 507.189 589.369 458.702 608.538C410.215 627.707 357.192 632.432 306.065 622.138L314.73 579.337C357.549 587.958 401.957 584.001 442.564 567.947C483.172 551.893 518.235 524.432 543.498 488.896L579.22 514.148Z" fill="#F0B6DB"/>
<path d="M306.086 622.143C259.356 612.739 215.964 591.141 180.339 559.552C144.713 527.964 118.129 487.517 103.298 442.338L144.913 428.754C157.334 466.592 179.598 500.467 209.435 526.922C239.271 553.377 275.612 571.465 314.748 579.341L306.086 622.143Z" fill="#7F92F1"/>
<path d="M141.301 200.987C166.282 166.627 199.07 138.655 236.979 119.364C274.888 100.073 316.84 90.01 359.4 90L359.411 133.665C323.767 133.673 288.632 142.1 256.883 158.257C225.134 174.413 197.674 197.839 176.753 226.616L141.301 200.987Z" fill="#86B7B5"/>
<path d="M103.393 442.366C90.1422 402.035 86.66 359.148 93.2316 317.217C99.8032 275.285 116.242 235.502 141.201 201.126L176.668 226.733C155.765 255.523 141.998 288.841 136.494 323.959C130.99 359.076 133.907 394.995 145.004 428.772L103.393 442.366Z" fill="#ECD5B5"/>
<defs>
<filter id="filter0_f_653_3069" x="0.503586" y="0.707687" width="718.137" height="716.688" filterUnits="userSpaceOnUse" color-interpolation-filters="sRGB">
<feFlood flood-opacity="0" result="BackgroundImageFix"/>
<feBlend mode="normal" in="SourceGraphic" in2="BackgroundImageFix" result="shape"/>
<feGaussianBlur stdDeviation="59.2194" result="effect1_foregroundBlur_653_3069"/>
</filter>
</defs>
</svg>
