<svg width="780" height="780" viewBox="0 0 780 780" fill="none" xmlns="http://www.w3.org/2000/svg">
<path d="M732 390C732 578.881 579.105 732 390.5 732C201.895 732 49 578.881 49 390C49 201.119 201.895 48 390.5 48C579.105 48 732 201.119 732 390ZM69.49 390C69.49 567.549 213.211 711.48 390.5 711.48C567.789 711.48 711.51 567.549 711.51 390C711.51 212.451 567.789 68.52 390.5 68.52C213.211 68.52 69.49 212.451 69.49 390Z" fill="#ED9682"/>
<path d="M390.392 122.039C432.667 122.039 474.35 131.958 512.071 150.995C549.791 170.031 582.49 197.651 607.526 231.621L572.241 257.479C551.274 229.029 523.889 205.897 492.298 189.954C460.707 174.011 425.798 165.704 390.392 165.704V122.039Z" fill="#A7E5E2"/>
<path d="M607.467 231.542C641.015 277.028 659.342 331.898 659.845 388.36C660.348 444.822 643.001 500.007 610.268 546.08L574.539 520.839C601.952 482.252 616.48 436.034 616.059 388.747C615.638 341.46 600.289 295.507 572.193 257.412L607.467 231.542Z" fill="#7754BE"/>
<path d="M610.22 546.148C580.055 588.58 538.189 621.369 489.702 640.538C441.215 659.707 388.192 664.432 337.065 654.138L345.73 611.337C388.549 619.958 432.957 616.001 473.564 599.947C514.172 583.893 549.235 556.432 574.498 520.896L610.22 546.148Z" fill="#F0B6DB"/>
<path d="M337.086 654.143C290.356 644.739 246.964 623.141 211.339 591.552C175.713 559.964 149.129 519.517 134.298 474.338L175.913 460.754C188.334 498.592 210.598 532.467 240.435 558.922C270.271 585.377 306.612 603.465 345.748 611.341L337.086 654.143Z" fill="#7F92F1"/>
<path d="M172.301 232.987C197.282 198.627 230.07 170.655 267.979 151.364C305.888 132.073 347.84 122.01 390.4 122L390.411 165.665C354.767 165.673 319.632 174.1 287.883 190.257C256.134 206.413 228.674 229.839 207.753 258.616L172.301 232.987Z" fill="#86B7B5"/>
<path d="M134.393 474.366C121.142 434.035 117.66 391.148 124.232 349.217C130.803 307.285 147.242 267.502 172.201 233.126L207.668 258.733C186.765 287.523 172.998 320.841 167.494 355.959C161.99 391.076 164.907 426.995 176.004 460.772L134.393 474.366Z" fill="#ECD5B5"/>
<g opacity="0.25" filter="url(#filter0_f_788_2423)">
<path d="M640.723 409.482C635.921 471.335 608.274 529.188 563.163 571.778C518.053 614.367 458.707 638.646 396.681 639.887L391.683 390.148L640.723 409.482Z" fill="#6490F5"/>
<path d="M398.909 639.833C359.411 640.976 320.205 632.732 284.512 615.778L391.683 390.148L398.909 639.833Z" fill="#2864FF"/>
<path d="M286.855 616.876C248.073 598.946 214.539 571.367 189.459 536.777C164.378 502.187 148.589 461.742 143.601 419.308L391.683 390.148L286.855 616.876Z" fill="#882DCF"/>
<path d="M139.682 388.529C139.945 342.776 152.728 297.98 176.642 259C200.557 220.02 234.69 188.345 275.339 167.413C315.988 146.48 361.599 137.09 407.224 140.26C452.849 143.43 496.745 159.04 534.149 185.395L390.076 390.174L139.682 388.529Z" fill="#EE4492"/>
<path d="M509.423 169.848C552.276 192.75 587.518 227.654 610.834 270.283C634.15 312.912 644.527 361.416 640.694 409.854L391.683 390.148L509.423 169.848Z" fill="#7C75FF"/>
</g>
<defs>
<filter id="filter0_f_788_2423" x="21.2431" y="21.2194" width="738.668" height="737.157" filterUnits="userSpaceOnUse" color-interpolation-filters="sRGB">
<feFlood flood-opacity="0" result="BackgroundImageFix"/>
<feBlend mode="normal" in="SourceGraphic" in2="BackgroundImageFix" result="shape"/>
<feGaussianBlur stdDeviation="59.2194" result="effect1_foregroundBlur_788_2423"/>
</filter>
</defs>
</svg>
