<svg width="240" height="247" viewBox="0 0 240 247" fill="none" xmlns="http://www.w3.org/2000/svg">
<path fill-rule="evenodd" clip-rule="evenodd" d="M119.999 23.7314C143.732 23.7314 166.933 30.2629 186.666 42.4998C206.4 54.7368 221.781 72.1296 230.863 92.4789C239.945 112.828 242.322 135.22 237.692 156.823C233.062 178.425 221.633 198.269 204.851 213.843C188.068 229.418 166.687 240.024 143.409 244.321C120.132 248.618 96.0041 246.413 74.0772 237.984C52.1503 229.555 33.4091 215.281 20.2234 196.967C7.0378 178.654 0 157.122 0 135.096C0 105.561 12.6427 77.2345 35.1468 56.3495C57.6509 35.4645 88.1731 23.7314 119.999 23.7314Z" fill="url(#paint0_radial_1676_2529)"/>
<path fill-rule="evenodd" clip-rule="evenodd" d="M150.104 35.7074C131.124 28.9678 128.749 5.85207 117.756 0C117.756 0 117.924 31.2988 111.607 43.3443L128.139 45.4023L146.604 41.3741L150.104 35.7074Z" fill="url(#paint1_radial_1676_2529)"/>
<path fill-rule="evenodd" clip-rule="evenodd" d="M178.849 38.0404C195.395 46.6824 209.496 58.8444 219.993 73.5274C230.489 88.2103 237.082 104.995 239.23 122.502C241.377 140.01 239.018 157.74 232.346 174.237C225.674 190.734 214.88 205.526 200.85 217.399C186.821 229.271 169.956 237.885 151.641 242.532C133.327 247.179 114.086 247.727 95.4987 244.131C76.9117 240.535 59.5093 232.897 44.7214 221.846C29.9335 210.794 18.182 196.644 10.4326 180.558C43.3592 214.461 104.578 213.047 112.166 179.407C119.754 145.767 91.8716 132.093 64.4205 131.459C34.7834 130.776 23.0336 115.775 21.3311 91.0016L70.5371 75.1035C82.5916 71.2021 86.6378 57.5473 100.038 47.5988C103.117 45.3165 106.795 44.4191 111.083 42.722C115.371 41.0249 121.446 40.7714 127.226 39.9033C136.685 38.5281 144.125 35.7581 151.913 35.7873C160.946 35.7938 169.96 36.5478 178.849 38.0404Z" fill="#EDE7F6"/>
<path fill-rule="evenodd" clip-rule="evenodd" d="M33.99 212.756C24.1631 203.39 16.1843 192.496 10.417 180.569C43.3436 214.472 104.562 213.058 112.15 179.418C119.738 145.779 91.856 132.104 64.4049 131.47C46.4229 131.051 34.978 125.365 28.4515 115.426L29.2187 114.07C32.8869 118.832 38.0684 122.41 44.0372 124.302C53.8322 127.296 81.3779 114.187 93.1907 117.474C93.1907 117.474 134.042 118.089 142.649 153.504C157.888 216.14 75.6607 252.482 33.99 212.756Z" fill="#ACBAC9"/>
<path fill-rule="evenodd" clip-rule="evenodd" d="M31.8065 119.656C25.3326 112.76 22.1271 103.075 21.2969 91L38.2699 85.5088C38.2699 85.5088 43.5247 98.6077 28.8112 104.284C31.5227 117.042 39.9304 122.533 49.5362 122.309C63.8082 121.977 77.9121 111.385 93.1931 117.432C79.5306 116.749 67.1818 123.352 56.4095 125.605C47.098 127.556 38.911 127.254 31.7539 119.617L31.8065 119.656Z" fill="#330099"/>
<path fill-rule="evenodd" clip-rule="evenodd" d="M192.555 46.3835C214.922 62.1683 230.613 84.7357 236.894 110.154C243.175 135.572 239.648 162.229 226.927 185.482C214.206 208.735 193.098 227.108 167.28 237.402C141.462 247.696 112.571 249.257 85.6406 241.813C151.998 249.684 188.309 191.378 172.545 126.723C163.233 144.903 142.666 153.545 142.666 153.545C164.736 129.454 160.301 103.802 139.24 86.4897C118.178 69.1773 89.8445 81.0375 89.8445 81.0375C90.3384 76.034 97.8108 71.284 104.663 68.4263C111.515 65.5685 119.376 57.4049 113.481 50.2458C107.753 43.2624 98.3678 48.9974 97.8948 49.2705C104.201 44.0134 112.787 39.517 125.84 37.5663C133.857 36.3836 141.958 35.7512 150.075 35.6742C154.71 26.0085 161.961 15.6503 173.112 9.33984C173.112 9.33984 190.558 20.9172 192.513 46.3249L192.555 46.3835Z" fill="url(#paint2_radial_1676_2529)"/>
<path fill-rule="evenodd" clip-rule="evenodd" d="M147.466 65.8368H147.518H147.466ZM149.063 66.7146C151.523 67.7582 156.536 68.6653 162.001 62.8132C162.001 62.8132 159.899 76.9752 167.56 85.2461C166.289 81.8617 165.816 78.3114 167.14 75.1123C171.428 64.7736 183.798 61.5843 185.384 47.6076C186.971 33.6308 181.706 23.4092 173.256 13.2754C173.256 13.2754 157.954 22.5899 155.264 37.9321C152.573 53.2743 155.874 60.882 152.111 65.6612C151.82 66.1362 151.359 66.5021 150.809 66.6962C150.258 66.8902 149.652 66.9001 149.095 66.7243L149.063 66.7146Z" fill="#E6E6E6"/>
<path fill-rule="evenodd" clip-rule="evenodd" d="M89.415 82.0665C89.415 82.0665 89.6357 75.1513 97.9383 71.4937C107.639 67.212 113.514 77.3458 103.929 79.0039C100.345 79.6379 95.0062 79.9792 89.415 82.0665Z" fill="#330099"/>
<path fill-rule="evenodd" clip-rule="evenodd" d="M171.489 68.4954C183.176 54.4602 180.307 43.7411 176.46 37.6355C176.197 37.2063 175.913 36.7967 175.64 36.4163C174.471 34.7489 173.056 33.242 171.436 31.9395C171.644 32.814 171.75 33.7067 171.752 34.6021C171.76 35.3846 171.711 36.1667 171.605 36.943C170.659 43.9655 165.73 51.2805 165.73 51.2805C165.596 48.5532 164.877 45.8781 163.613 43.4126C162.35 40.947 160.568 38.7408 158.373 36.9235C159.897 47.1743 157.007 68.7587 149.356 66.769H149.146C151.615 67.8126 156.618 68.7197 162.072 62.8676C162.072 62.8676 159.97 77.0297 167.632 85.3006C166.35 81.9161 165.877 78.3659 167.212 75.1668C168.25 72.7537 169.721 70.5211 171.563 68.5637L171.489 68.4954Z" fill="#330099"/>
<defs>
<radialGradient id="paint0_radial_1676_2529" cx="0" cy="0" r="1" gradientUnits="userSpaceOnUse" gradientTransform="translate(29.2401 26.4318) rotate(55.4557) scale(228.368 235.097)">
<stop stop-color="#A7FFEB"/>
<stop offset="0.52" stop-color="#0091EA"/>
<stop offset="1" stop-color="#6200EA"/>
</radialGradient>
<radialGradient id="paint1_radial_1676_2529" cx="0" cy="0" r="1" gradientUnits="userSpaceOnUse" gradientTransform="translate(123.871 4.25923) rotate(75.6835) scale(52.2203 55.7915)">
<stop stop-color="#69F0AE"/>
<stop offset="0.45" stop-color="#00B0FF"/>
<stop offset="0.77" stop-color="#2962FF"/>
<stop offset="1" stop-color="#6200EA"/>
</radialGradient>
<radialGradient id="paint2_radial_1676_2529" cx="0" cy="0" r="1" gradientUnits="userSpaceOnUse" gradientTransform="translate(194.493 -32.717) rotate(107.112) scale(254.564 271.005)">
<stop stop-color="#69F0AE"/>
<stop offset="0.45" stop-color="#00B0FF"/>
<stop offset="0.77" stop-color="#2962FF"/>
<stop offset="1" stop-color="#6200EA"/>
</radialGradient>
</defs>
</svg>
