<svg width="75" height="77" viewBox="0 0 75 77" fill="none" xmlns="http://www.w3.org/2000/svg">
<g filter="url(#filter0_b_1258_5532)">
<rect width="75" height="77" rx="3.8963" transform="matrix(1 0 0 -1 0 77)" fill="url(#paint0_linear_1258_5532)" fill-opacity="0.38"/>
<g clip-path="url(#clip0_1258_5532)">
<path d="M37.4275 9.5C21.7229 9.5 8.5 22.2321 8.5 37.9423V67.394L37.4219 67.3662C53.1265 67.3662 65.8642 54.1433 65.8642 38.4387C65.8642 22.734 53.1154 9.5 37.4275 9.5Z" fill="#231F20"/>
<path d="M37.7068 20.5088C34.6534 20.5106 31.6528 21.3052 28.9987 22.8148C26.3446 24.3245 24.1279 26.4974 22.5657 29.1209C21.0035 31.7445 20.1493 34.7287 20.0867 37.7814C20.0241 40.8342 20.7552 43.8509 22.2086 46.5363L19.0186 56.7978L30.4736 54.2101C32.8705 55.2901 35.4787 55.8202 38.1071 55.7617C40.7355 55.7033 43.3175 55.0576 45.6641 53.8721C48.0107 52.6866 50.0624 50.9913 51.669 48.9103C53.2756 46.8292 54.3964 44.4152 54.9493 41.845C55.5023 39.2747 55.4733 36.6134 54.8646 34.0558C54.2559 31.4982 53.0828 29.1091 51.4313 27.0635C49.7798 25.018 47.6917 23.3677 45.3199 22.2335C42.9481 21.0994 40.3526 20.5101 37.7236 20.5088H37.7068Z" fill="#FFF9AE"/>
<path d="M51.6937 27.4131C54.07 30.5286 55.3402 34.3472 55.3036 38.2653C55.2669 42.1834 53.9256 45.9776 51.4915 49.0481C49.0575 52.1187 45.6695 54.2905 41.8632 55.2203C38.0568 56.1501 34.0491 55.7849 30.4736 54.1823L19.0186 56.8035L30.6799 55.426C34.4141 57.6134 38.8227 58.3504 43.0653 57.4963C47.308 56.6423 51.088 54.257 53.685 50.795C56.282 47.3331 57.5143 43.0366 57.1471 38.7244C56.7798 34.4123 54.8387 30.386 51.6937 27.4131Z" fill="#00AEEF"/>
<path d="M48.448 24.1621C51.1363 27.0125 52.7981 30.6775 53.1707 34.5779C53.5433 38.4784 52.6055 42.3917 50.5054 45.6995C48.4053 49.0074 45.2627 51.521 41.5744 52.8432C37.886 54.1653 33.8622 54.2207 30.1389 53.0004L19.0186 56.8038L30.4736 54.2106C34.4145 55.9907 38.8724 56.2598 42.9989 54.9665C47.1253 53.6732 50.6322 50.9079 52.8521 47.1968C55.072 43.4857 55.8499 39.0879 55.0378 34.8405C54.2258 30.5931 51.8803 26.7925 48.448 24.1621Z" fill="#00A94F"/>
<path d="M23.2626 46.9262C21.7135 43.1922 21.4948 39.0392 22.6433 35.1631C23.7917 31.287 26.2374 27.9235 29.5706 25.636C32.9038 23.3485 36.9219 22.2761 40.9516 22.5985C44.9814 22.921 48.7778 24.6186 51.7049 27.407C49.0112 23.872 45.0818 21.4849 40.7032 20.7236C36.3246 19.9622 31.82 20.8828 28.0912 23.3009C24.3624 25.7191 21.6846 29.4565 20.5938 33.7648C19.503 38.0732 20.0797 42.6346 22.2086 46.5358L19.0186 56.7973L23.2626 46.9262Z" fill="#F15D22"/>
<path d="M22.2081 46.5364C20.2858 42.9858 19.6406 38.8828 20.3804 34.9136C21.1202 30.9443 23.2001 27.3493 26.2724 24.7295C29.3447 22.1097 33.2232 20.624 37.2594 20.5207C41.2957 20.4173 45.2452 21.7027 48.4475 24.1618C45.3948 20.9474 41.2432 19.0012 36.8198 18.7107C32.3963 18.4203 28.0259 19.8071 24.5791 22.5947C21.1324 25.3824 18.8624 29.3662 18.2214 33.7526C17.5805 38.139 18.6156 42.6058 21.1206 46.2631L19.0236 56.8035L22.2081 46.5364Z" fill="#E31B23"/>
</g>
<rect x="0.487037" y="-0.487037" width="74.0259" height="76.0259" rx="3.40926" transform="matrix(1 0 0 -1 0 76.0259)" stroke="#7F92F1" stroke-opacity="0.4" stroke-width="0.974074"/>
</g>
<defs>
<filter id="filter0_b_1258_5532" x="-4.87037" y="-4.87037" width="84.7407" height="86.7407" filterUnits="userSpaceOnUse" color-interpolation-filters="sRGB">
<feFlood flood-opacity="0" result="BackgroundImageFix"/>
<feGaussianBlur in="BackgroundImageFix" stdDeviation="2.43519"/>
<feComposite in2="SourceAlpha" operator="in" result="effect1_backgroundBlur_1258_5532"/>
<feBlend mode="normal" in="SourceGraphic" in2="effect1_backgroundBlur_1258_5532" result="shape"/>
</filter>
<linearGradient id="paint0_linear_1258_5532" x1="75" y1="-1.95763" x2="-2.02422" y2="74.9733" gradientUnits="userSpaceOnUse">
<stop stop-color="#7F92F1" stop-opacity="0"/>
<stop offset="1" stop-color="#7F92F1"/>
</linearGradient>
<clipPath id="clip0_1258_5532">
<rect width="58" height="59.1154" fill="white" transform="translate(8.5 8.94238)"/>
</clipPath>
</defs>
</svg>
