<svg width="78" height="77" viewBox="0 0 78 77" fill="none" xmlns="http://www.w3.org/2000/svg">
<rect width="78" height="77" rx="6" fill="white"/>
<rect width="78" height="77" rx="6" fill="url(#paint0_linear_1258_5219)"/>
<rect width="78" height="77" rx="6" fill="url(#paint1_linear_1258_5219)"/>
<path d="M56.8962 31.0746C56.8098 29.1571 56.5 27.8451 56.0605 26.6989C55.5994 25.5167 54.987 24.5074 53.9856 23.5126C52.9842 22.5178 51.9828 21.8907 50.8013 21.4365C49.6558 20.9896 48.3446 20.6868 46.4282 20.6003C44.5046 20.5138 43.8923 20.4922 39.0077 20.4922C34.1159 20.4922 33.5035 20.5138 31.5872 20.6003C29.6708 20.6868 28.3596 20.9968 27.2141 21.4365C26.0254 21.8979 25.0168 22.5106 24.0225 23.5126C23.0283 24.5147 22.4016 25.5167 21.9477 26.6989C21.5082 27.8451 21.1984 29.1571 21.112 31.0746C21.0255 32.9993 21.0039 33.6121 21.0039 38.4996C21.0039 43.3943 21.0255 44.007 21.112 45.9246C21.1984 47.8421 21.5082 49.1541 21.9477 50.3003C22.4088 51.4825 23.0211 52.4917 24.0225 53.4865C25.0168 54.4885 26.0254 55.1085 27.2069 55.5626C28.3524 56.0096 29.6636 56.3123 31.58 56.3988C33.5035 56.4853 34.1159 56.507 39.0005 56.507C43.8923 56.507 44.5046 56.4853 46.421 56.3988C48.3374 56.3123 49.6486 56.0024 50.7941 55.5626C51.9756 55.1013 52.9842 54.4885 53.9784 53.4865C54.9726 52.4845 55.5994 51.4825 56.0533 50.3003C56.5 49.1541 56.8026 47.8421 56.889 45.9246C56.9755 43.9998 56.9971 43.3871 56.9971 38.4996C56.9971 33.6121 56.9827 32.9921 56.8962 31.0746ZM53.6614 45.7804C53.5822 47.5393 53.2868 48.4981 53.0419 49.1252C52.7177 49.9614 52.3214 50.567 51.6874 51.2013C51.0534 51.8357 50.4555 52.2178 49.6126 52.5566C48.9786 52.8017 48.0204 53.0972 46.2697 53.1765C44.375 53.263 43.8058 53.2847 38.9933 53.2847C34.1807 53.2847 33.6116 53.263 31.7168 53.1765C29.959 53.0972 29.0008 52.8017 28.374 52.5566C27.5383 52.2322 26.9331 51.8357 26.2991 51.2013C25.6652 50.567 25.2833 49.9687 24.9447 49.1252C24.6998 48.4909 24.4044 47.5321 24.3251 45.7804C24.2387 43.8845 24.2171 43.315 24.2171 38.4996C24.2171 33.6842 24.2387 33.1147 24.3251 31.2188C24.4044 29.4598 24.6998 28.5011 24.9447 27.8739C25.2689 27.0377 25.6652 26.4322 26.2991 25.7978C26.9331 25.1634 27.5311 24.7814 28.374 24.4426C29.008 24.1975 29.9662 23.9019 31.7168 23.8226C33.6116 23.7361 34.1807 23.7145 38.9933 23.7145C43.8058 23.7145 44.375 23.7361 46.2697 23.8226C48.0276 23.9019 48.9858 24.1975 49.6126 24.4426C50.4483 24.767 51.0534 25.1634 51.6874 25.7978C52.3214 26.4322 52.7033 27.0305 53.0419 27.8739C53.2868 28.5083 53.5822 29.467 53.6614 31.2188C53.7479 33.1147 53.7695 33.6842 53.7695 38.4996C53.7695 43.315 53.7407 43.8845 53.6614 45.7804Z" fill="white"/>
<path d="M38.9926 29.2441C33.8775 29.2441 29.7422 33.3892 29.7422 38.5001C29.7422 43.6183 33.8847 47.7561 38.9926 47.7561C44.1005 47.7561 48.2431 43.6039 48.2431 38.5001C48.2431 33.3819 44.1078 29.2441 38.9926 29.2441ZM38.9926 44.505C35.6786 44.505 32.9914 41.8162 32.9914 38.5001C32.9914 35.1841 35.6786 32.4953 38.9926 32.4953C42.3067 32.4953 44.9939 35.1841 44.9939 38.5001C44.9939 41.8162 42.3067 44.505 38.9926 44.505Z" fill="white"/>
<path d="M48.6037 31.0459C49.7974 31.0459 50.765 30.0777 50.765 28.8833C50.765 27.6889 49.7974 26.7207 48.6037 26.7207C47.41 26.7207 46.4424 27.6889 46.4424 28.8833C46.4424 30.0777 47.41 31.0459 48.6037 31.0459Z" fill="white"/>
<defs>
<linearGradient id="paint0_linear_1258_5219" x1="4.22718" y1="3.66666" x2="77.5541" y2="77.9714" gradientUnits="userSpaceOnUse">
<stop stop-color="#F21F1E"/>
<stop offset="1" stop-color="#FF1901"/>
</linearGradient>
<linearGradient id="paint1_linear_1258_5219" x1="72.0361" y1="2.75" x2="1.50628" y2="77.9331" gradientUnits="userSpaceOnUse">
<stop stop-color="#B03DAC"/>
<stop offset="1" stop-color="#AF3DAE" stop-opacity="0"/>
</linearGradient>
</defs>
</svg>
