<svg width="49" height="41" viewBox="0 0 49 41" fill="none" xmlns="http://www.w3.org/2000/svg">
<path d="M12.4406 2.16145C12.8286 1.11027 13.9127 0.246434 15.0886 0.0514237C17.467 -0.342997 19.8277 1.58736 19.8277 3.92626C19.8277 5.04568 19.3344 6.0499 18.4945 6.63984C18.2743 6.79454 18.0943 6.97246 18.0947 7.03518C18.095 7.0979 18.4982 8.18509 18.9905 9.45123L19.8857 11.7533L23.8415 11.7801C26.0172 11.7948 27.9364 11.7703 28.1063 11.7257C28.3781 11.6543 28.5237 11.4443 29.3188 9.976C29.8157 9.05824 30.2074 8.29712 30.1893 8.28464C28.7053 7.26252 28.0801 6.24521 28.0754 4.84423C28.0662 2.17935 30.8628 0.632056 33.4146 1.89021C35.757 3.04513 36.4346 6.00334 34.7483 7.7126C33.8094 8.66433 32.4467 8.97966 30.9015 8.60284C30.8535 8.59107 30.3843 9.38083 29.8585 10.3576L28.9027 12.1338L30.9253 15.6774C32.0378 17.6265 32.9557 19.2279 32.9652 19.2359C32.9905 19.2575 41.1358 20.197 41.2848 20.1954C41.3543 20.1947 41.411 20.0808 41.411 19.9423C41.411 19.4539 41.8234 18.5669 42.2645 18.1069C44.5854 15.6865 48.9801 17.5156 48.9999 20.9104C49.0125 23.0629 47.0948 24.6198 44.8671 24.2657C43.3268 24.0209 41.9073 22.8021 41.5171 21.3895C41.3942 20.9444 41.3651 20.9162 40.9701 20.861C39.9258 20.7149 33.4959 19.9896 33.2451 19.9896C32.9816 19.9896 32.8346 20.2183 30.8788 23.6718C29.7319 25.697 28.7936 27.3866 28.7936 27.4267C28.7936 27.4667 29.3627 28.9577 30.0582 30.74L31.3229 33.9806L31.749 33.8309C32.3198 33.6305 33.3632 33.6337 34.0568 33.8381C34.3678 33.9298 34.8984 34.1917 35.2359 34.4202C37.5939 36.0161 37.5593 39.3698 35.1723 40.5958C32.6536 41.8895 29.3973 39.9067 29.3876 37.0732C29.3845 36.1654 29.688 35.373 30.2723 34.7636L30.7294 34.287L30.3164 33.2004C30.0893 32.6028 29.4961 31.0779 28.9982 29.8117L28.0928 27.5097L25.6925 27.4775C24.3724 27.4598 22.611 27.4759 21.7783 27.5131L20.2642 27.5809L18.851 30.2009L17.0651 33.5117L16.6924 34.2024L17.1785 34.564C17.7315 34.9756 18.3166 35.785 18.5501 36.4622C18.6374 36.7154 18.71 37.2232 18.7112 37.5905C18.7204 40.2481 15.909 41.8045 13.372 40.5463C11.0281 39.3838 10.352 36.4314 12.0383 34.7221C12.9699 33.7778 14.3602 33.4592 15.8733 33.8432C16.1149 33.9045 16.2011 33.7667 17.8921 30.6157C18.8637 28.8054 19.6466 27.2838 19.6321 27.2342C19.5587 26.9844 15.6153 20.1662 15.5248 20.1325C15.4666 20.1109 13.6703 20.7523 11.5329 21.5577L7.64676 23.0222L7.61607 23.5118C7.4901 25.5245 5.59415 26.9606 3.50885 26.6231C0.985258 26.2147 -0.610696 23.7272 0.222661 21.5017C0.626418 20.4235 1.69637 19.5852 2.91895 19.3892C4.62221 19.116 6.50543 20.1197 7.25117 21.6981C7.40541 22.0246 7.53845 22.303 7.54673 22.3168C7.56631 22.3494 15.1339 19.503 15.3736 19.373C15.4734 19.3188 16.4275 17.7272 17.4939 15.836L19.4328 12.3976L18.9178 11.0523C17.6541 7.75138 17.4294 7.25004 17.2267 7.27859C17.1207 7.29352 16.738 7.31133 16.376 7.31828C13.6088 7.37118 11.5254 4.64103 12.4406 2.16145Z" fill="white"/>
</svg>
