<svg width="76" height="76" viewBox="0 0 76 76" fill="none" xmlns="http://www.w3.org/2000/svg">
<circle cx="38" cy="38" r="38" fill="#934CE4" fill-opacity="0.32"/>
<path d="M25.4406 20.1614C25.8286 19.1103 26.9127 18.2464 28.0886 18.0514C30.467 17.657 32.8277 19.5874 32.8277 21.9263C32.8277 23.0457 32.3344 24.0499 31.4945 24.6398C31.2743 24.7945 31.0943 24.9725 31.0947 25.0352C31.095 25.0979 31.4982 26.1851 31.9905 27.4512L32.8857 29.7533L36.8415 29.7801C39.0172 29.7948 40.9364 29.7703 41.1063 29.7257C41.3781 29.6543 41.5237 29.4443 42.3188 27.976C42.8157 27.0582 43.2074 26.2971 43.1893 26.2846C41.7053 25.2625 41.0801 24.2452 41.0754 22.8442C41.0662 20.1794 43.8628 18.6321 46.4146 19.8902C48.757 21.0451 49.4346 24.0033 47.7483 25.7126C46.8094 26.6643 45.4467 26.9797 43.9015 26.6028C43.8535 26.5911 43.3843 27.3808 42.8585 28.3576L41.9027 30.1338L43.9253 33.6774C45.0378 35.6265 45.9557 37.2279 45.9652 37.2359C45.9905 37.2575 54.1358 38.197 54.2848 38.1954C54.3543 38.1947 54.411 38.0808 54.411 37.9423C54.411 37.4539 54.8234 36.5669 55.2645 36.1069C57.5854 33.6865 61.9801 35.5156 61.9999 38.9104C62.0125 41.0629 60.0948 42.6198 57.8671 42.2657C56.3268 42.0209 54.9073 40.8021 54.5171 39.3895C54.3942 38.9444 54.3651 38.9162 53.9701 38.861C52.9258 38.7149 46.4959 37.9896 46.2451 37.9896C45.9816 37.9896 45.8346 38.2183 43.8788 41.6718C42.7319 43.697 41.7936 45.3866 41.7936 45.4267C41.7936 45.4667 42.3627 46.9577 43.0582 48.74L44.3229 51.9806L44.749 51.8309C45.3198 51.6305 46.3632 51.6337 47.0568 51.8381C47.3678 51.9298 47.8984 52.1917 48.2359 52.4202C50.5939 54.0161 50.5593 57.3698 48.1723 58.5958C45.6536 59.8895 42.3973 57.9067 42.3876 55.0732C42.3845 54.1654 42.688 53.373 43.2723 52.7636L43.7294 52.287L43.3164 51.2004C43.0893 50.6028 42.4961 49.0779 41.9982 47.8117L41.0928 45.5097L38.6925 45.4775C37.3724 45.4598 35.611 45.4759 34.7783 45.5131L33.2642 45.5809L31.851 48.2009L30.0651 51.5117L29.6924 52.2024L30.1785 52.564C30.7315 52.9756 31.3166 53.785 31.5501 54.4622C31.6374 54.7154 31.71 55.2232 31.7112 55.5905C31.7204 58.2481 28.909 59.8045 26.372 58.5463C24.0281 57.3838 23.352 54.4314 25.0383 52.7221C25.9699 51.7778 27.3602 51.4592 28.8733 51.8432C29.1149 51.9045 29.2011 51.7667 30.8921 48.6157C31.8637 46.8054 32.6466 45.2838 32.6321 45.2342C32.5587 44.9844 28.6153 38.1662 28.5248 38.1325C28.4666 38.1109 26.6703 38.7523 24.5329 39.5577L20.6468 41.0222L20.6161 41.5118C20.4901 43.5245 18.5942 44.9606 16.5088 44.6231C13.9853 44.2147 12.3893 41.7272 13.2227 39.5017C13.6264 38.4235 14.6964 37.5852 15.919 37.3892C17.6222 37.116 19.5054 38.1197 20.2512 39.6981C20.4054 40.0246 20.5384 40.303 20.5467 40.3168C20.5663 40.3494 28.1339 37.503 28.3736 37.373C28.4734 37.3188 29.4275 35.7272 30.4939 33.836L32.4328 30.3976L31.9178 29.0523C30.6541 25.7514 30.4294 25.25 30.2267 25.2786C30.1207 25.2935 29.738 25.3113 29.376 25.3183C26.6088 25.3712 24.5254 22.641 25.4406 20.1614Z" fill="white"/>
</svg>
